<?xml version='1.0' encoding='utf-8'?>
<svg xmlns="http://www.w3.org/2000/svg" width="491.60309mm" height="718.78333mm" viewBox="0 0 491.60309 718.78333" version="1.1" id="svg8"> <defs id="defs2"> </defs> <metadata id="metadata5"> </metadata> <g transform="translate(-190.45906,199.19269)" id="layer1"> <rect style="opacity:1;fill:#c83737;fill-opacity:1;fill-rule:evenodd;stroke:#ffffff;stroke-width:2.86499;stroke-linecap:round;stroke-linejoin:round;stroke-miterlimit:4;stroke-dasharray:none;stroke-opacity:1;paint-order:fill markers stroke" id="rect917" width="488.7381" height="715.91833" x="191.89156" y="-197.76019" ry="58.905819"/> <rect ry="55.914364" y="-179.58168" x="208.72258" height="679.56128" width="455.07605" id="rect919" style="opacity:1;fill:#ffffff;fill-opacity:1;fill-rule:evenodd;stroke:#ffffff;stroke-width:2.69345;stroke-linecap:round;stroke-linejoin:round;stroke-miterlimit:4;stroke-dasharray:none;stroke-opacity:1;paint-order:fill markers stroke"/> <rect style="opacity:1;fill:#c83737;fill-opacity:1;fill-rule:evenodd;stroke:#ffffff;stroke-width:2.62544;stroke-linecap:round;stroke-linejoin:round;stroke-miterlimit:4;stroke-dasharray:none;stroke-opacity:1;paint-order:fill markers stroke" id="rect921" width="442.99454" height="663.28467" x="214.76334" y="-171.44337" ry="54.575127"/> <path id="path934" style="color:#000000;font-style:normal;font-variant:normal;font-weight:normal;font-stretch:normal;font-size:medium;line-height:normal;font-family:sans-serif;font-variant-ligatures:normal;font-variant-position:normal;font-variant-caps:normal;font-variant-numeric:normal;font-variant-alternates:normal;font-variant-east-asian:normal;font-feature-settings:normal;font-variation-settings:normal;text-indent:0;text-align:start;text-decoration:none;text-decoration-line:none;text-decoration-style:solid;text-decoration-color:#000000;letter-spacing:normal;word-spacing:normal;text-transform:none;writing-mode:lr-tb;direction:ltr;text-orientation:mixed;dominant-baseline:auto;baseline-shift:baseline;text-anchor:start;white-space:normal;shape-padding:0;shape-margin:0;inline-size:0;clip-rule:nonzero;display:inline;overflow:visible;visibility:visible;opacity:1;isolation:auto;mix-blend-mode:normal;color-interpolation:sRGB;color-interpolation-filters:linearRGB;solid-color:#000000;solid-opacity:1;vector-effect:none;fill:#ffffff;fill-opacity:1;fill-rule:nonzero;stroke:none;stroke-width:3.48718;stroke-linecap:butt;stroke-linejoin:miter;stroke-miterlimit:4;stroke-dasharray:none;stroke-dashoffset:0;stroke-opacity:1;color-rendering:auto;image-rendering:auto;shape-rendering:auto;text-rendering:auto;enable-background:accumulate;stop-color:#000000;stop-opacity:1" d="m 303.94232,-157.94971 1.80776,1.83225 -16.08242,16.03615 -15.95125,-16.16802 1.67954,-1.6746 c -2.54543,0.0756 -5.04392,0.33296 -7.48302,0.75996 l 0.88365,0.8958 -16.0819,16.03615 -7.11072,-7.20754 c -0.93155,0.70577 -1.83945,1.44113 -2.72051,2.20703 l 7.36221,7.46236 -16.08391,16.03763 -4.88823,-4.9549 c -0.50667,1.16196 -0.97251,2.34617 -1.39601,3.55097 l 3.81474,3.86627 -6.27342,6.25523 c -0.24807,1.77234 -0.40855,3.57369 -0.47684,5.39958 l 9.19905,-9.17265 15.95126,16.16802 -16.08194,16.036148 -9.10978,-9.233624 v 4.964328 l 6.64076,6.731133 -6.64076,6.621579 v 4.924171 l 9.08956,-9.063586 15.95275,16.169505 -16.08343,16.037639 -8.95888,-9.080444 v 4.965319 l 6.48937,6.577458 -6.48937,6.470875 v 4.923677 l 8.93818,-8.912388 15.95075,16.168018 -16.08191,16.035656 -8.80702,-8.92627 v 4.964328 l 6.338,6.4237792 -6.338,6.3196774 v 4.9251623 l 8.78729,-8.7621805 15.95273,16.1695056 -16.08391,16.03764 -8.65611,-8.773582 v 4.964326 l 6.18708,6.271094 -6.18708,6.169467 v 4.92417 l 8.63589,-8.611474 15.95126,16.168018 -16.08242,16.036152 -8.50473,-8.619903 v 4.964327 l 6.03571,6.117909 -6.03571,6.018267 v 4.927146 l 8.486,-8.461762 15.95174,16.168019 -16.0839,16.03764 -8.35384,-8.467217 v 4.964325 l 5.88482,5.965222 -5.88482,5.86806 v 4.92367 l 8.33363,-8.30957 15.95126,16.16753 -16.08245,16.03615 -8.20244,-8.31403 v 4.96532 l 5.73294,5.81105 -5.73294,5.71685 v 4.92714 l 8.18371,-8.16034 15.95126,16.16751 -16.08391,16.03765 -8.05106,-8.16035 v 4.96481 l 5.58203,5.65787 -5.58203,5.56565 v 4.92517 l 8.03135,-8.00816 15.95125,16.16752 -16.08242,16.03615 -7.90018,-8.00766 v 4.96531 l 5.43066,5.50468 -5.43066,5.41496 v 4.92764 l 7.88145,-7.85895 15.95075,16.16802 -16.08293,16.03715 -7.74927,-7.85448 v 4.96532 l 5.27977,5.35149 -5.27977,5.26425 v 4.92417 l 7.72858,-7.70625 15.95271,16.1695 -16.08241,16.03566 -7.59888,-7.70229 v 4.96482 l 5.12985,5.19931 -5.12985,5.11552 v 4.92516 l 7.57966,-7.55804 15.95076,16.16804 -16.08392,16.03762 -7.4465,-7.54812 v 4.96584 l 4.977,5.04463 -4.977,4.96283 v 4.92417 l 7.42628,-7.40484 15.95275,16.16952 -16.08242,16.03564 -7.29661,-7.39593 v 4.96532 l 4.82759,4.89295 -4.82759,4.81361 v 4.92465 l 7.27687,-7.25609 15.95125,16.168 -16.0839,16.03763 -7.14422,-7.24125 v 4.96433 l 4.6752,4.73876 -4.6752,4.66193 v 4.92417 l 7.12402,-7.10394 15.95272,16.16951 -16.08241,16.03615 -6.93517,-7.02908 c 0.0861,1.86485 0.26681,3.70433 0.54046,5.51212 l 3.92569,3.97931 -2.51785,2.51042 c 0.35794,1.26004 0.76191,2.4998 1.20911,3.71853 l 3.75753,-3.74679 15.95176,16.16802 -7.06731,7.04693 c 0.83481,0.81094 1.69696,1.59322 2.5844,2.34682 l 6.93171,-6.91159 15.95272,16.16951 -1.59965,1.59528 c 3.05052,0.74051 6.20657,1.2137 9.44411,1.39104 l -2.92663,-2.96601 16.08243,-16.03664 15.95124,16.16754 -2.92514,2.91692 h 4.93903 l 0.43542,-0.43428 0.42853,0.43428 h 4.89759 l -2.8571,-2.89612 16.08391,-16.03762 15.95272,16.16948 -2.77228,2.76426 h 4.93805 l 0.28305,-0.2821 0.2781,0.2821 h 4.8981 l -2.70718,-2.74392 16.08242,-16.03616 15.95075,16.16802 -2.61942,2.61206 h 4.93904 l 0.1297,-0.12939 0.12769,0.12939 h 4.89909 l -2.55729,-2.59222 16.08391,-16.03765 15.95223,16.169 -2.46803,2.46087 h 9.79373 l -2.40736,-2.44003 16.08242,-16.03615 15.95074,16.16801 -2.31469,2.30817 h 9.49049 l -2.25746,-2.28834 16.0834,-16.03715 15.95274,16.16951 -2.16231,2.15598 h 9.18867 l -2.10755,-2.13616 16.08241,-16.03565 15.95075,16.16754 -2.00991,2.00427 h 8.88492 l -1.95718,-1.98395 16.08391,-16.03765 15.95273,16.16951 -1.85755,1.85209 h 8.58363 l -1.80776,-1.83226 16.08243,-16.03616 15.95125,16.16802 -1.67955,1.67461 c 2.54457,-0.0756 5.04223,-0.33272 7.48054,-0.75947 l -0.88267,-0.89481 16.0834,-16.03763 7.11071,7.20704 c 0.93152,-0.70574 1.8395,-1.44065 2.72051,-2.20655 l -7.36219,-7.46235 16.08291,-16.03613 4.88874,4.95488 c 0.50655,-1.16156 0.97209,-2.34556 1.39551,-3.54997 l -3.81522,-3.86725 6.27488,-6.25672 c 0.24806,-1.77234 0.40805,-3.57368 0.47635,-5.39957 l -9.20053,9.17412 -15.95125,-16.168 16.0839,-16.03766 9.10979,9.23363 v -4.96433 l -6.64077,-6.73113 6.64077,-6.62206 v -4.9237 l -9.08957,9.06359 -15.95274,-16.1695 16.08194,-16.03616 8.96037,9.08195 v -4.96533 l -6.49087,-6.57894 6.49087,-6.47236 v -4.92369 l -8.93967,8.91389 -15.95125,-16.16753 16.0839,-16.03763 8.80702,8.92625 v -4.96432 l -6.338,-6.42379 6.338,-6.32015 v -4.92468 l -8.78729,8.76218 -15.95274,-16.16951 16.08193,-16.03615 8.6581,8.77558 v -4.96534 l -6.18859,-6.27255 6.18859,-6.17096 v -4.92369 l -8.63738,8.61248 -15.95126,-16.16753 16.0839,-16.03764 8.50474,8.6199 v -4.96433 l -6.03572,-6.11791 6.03572,-6.01826 v -4.92467 l -8.48501,8.46078 -15.95225,-16.16902 16.08194,-16.03615 8.35532,8.4687 v -4.96829 l -5.88433,-5.96423 5.88433,-5.86756 v -4.92467 l -8.33363,8.30957 -15.95126,-16.16752 16.08242,-16.03566 8.20247,8.31404 v -4.96582 l -5.73295,-5.81104 5.73295,-5.71637 v -4.92417 l -8.18224,8.15837 -15.95274,-16.16901 16.08243,-16.03615 8.05255,8.16184 v -4.96779 l -5.58205,-5.65788 5.58205,-5.56565 v -4.92516 l -8.03136,8.00816 -15.95075,-16.16753 16.08192,-16.03615 7.90019,8.00768 v -4.96433 l -5.43116,-5.50518 5.43116,-5.415452 v -4.924172 l -7.87996,7.857454 -15.95274,-16.169503 16.08243,-16.03615 7.75027,7.855474 v -4.967798 l -5.27977,-5.351496 5.27977,-5.26425 v -4.924171 l -7.72859,7.706257 -15.95124,-16.168018 16.08193,-16.036152 7.5979,7.701299 V 36.21969 l -5.12888,-5.198315 5.12888,-5.114039 v -4.924172 l -7.57768,7.556048 -15.95275,-16.169505 16.08391,-16.0376404 7.44652,7.5476216 v -4.9653183 l -4.977,-5.0446365 4.977,-4.9628374 v -4.924172 l -7.4263,7.4048452 -15.95075,-16.1675212 16.08191,-16.036151 7.29514,7.394435 v -4.964819 l -4.82611,-4.891455 4.82611,-4.812133 v -4.925164 l -7.27541,7.254638 -15.95272,-16.169505 16.08389,-16.037635 7.14424,7.241247 v -4.964328 l -4.67522,-4.738755 4.67522,-4.661934 v -4.923672 l -7.12402,7.103441 -15.95125,-16.167526 16.0829,-16.036652 6.93269,7.0271 c -0.0861,-1.86468 -0.26632,-3.70399 -0.53994,-5.51162 l -3.92372,-3.97731 2.51686,-2.50943 c -0.35796,-1.26037 -0.76185,-2.5005 -1.20912,-3.71953 l -3.75753,3.7463 -15.95273,-16.16951 7.06731,-7.04692 c -0.83481,-0.81095 -1.69698,-1.59323 -2.58441,-2.34682 l -6.93171,6.91158 -15.95075,-16.16752 1.60064,-1.59628 c -3.05147,-0.74094 -6.20846,-1.21463 -9.44708,-1.39204 l 2.92663,2.966 -16.08241,16.03666 -15.95126,-16.16753 2.92515,-2.91692 h -4.93903 l -0.43542,0.43426 -0.42852,-0.43426 h -4.8981 l 2.8576,2.89611 -16.0839,16.03763 -15.95077,-16.16752 2.77427,-2.76622 h -4.94198 l -0.28305,0.28208 -0.27812,-0.28208 h -4.89811 l 2.70721,2.74391 -16.08194,16.03615 -15.95126,-16.16801 2.61942,-2.61205 h -4.93804 l -0.13018,0.12988 -0.12821,-0.12988 h -4.89908 l 2.55779,2.59222 -16.0839,16.03763 -15.95126,-16.16801 2.46902,-2.46184 h -9.7962 l 2.40738,2.44002 -16.08244,16.03615 -15.95075,-16.16802 2.31469,-2.30815 h -9.49345 l 2.25897,2.28981 -16.08242,16.03615 -15.95275,-16.1695 2.16279,-2.15646 h -9.18866 l 2.10754,2.13614 -16.0824,16.03565 -15.95076,-16.16752 2.00992,-2.00427 h -8.88886 l 1.95915,1.98593 -16.08194,16.03565 -15.95274,-16.1695 1.85757,-1.85208 z m -32.6969,4.16371 15.95173,16.16851 -16.08241,16.03566 -15.95127,-16.16803 z m 36.95346,0.1507 15.95272,16.16951 -16.08242,16.03615 -15.95271,-16.16951 z m 36.95299,0.15369 15.95125,16.16751 -16.08241,16.03566 -15.95078,-16.16752 z m 36.95346,0.15069 15.95275,16.16902 -16.08194,16.03615 -15.95323,-16.16951 z m 36.95299,0.15319 15.95125,16.16752 -16.08241,16.03665 -15.95126,-16.16802 z m 36.95495,0.15169 15.95126,16.16852 -16.08195,16.03566 -15.95172,-16.16803 z m 36.95299,0.15071 15.95126,16.16802 -16.08391,16.03763 -15.95126,-16.16751 z m 36.95346,0.15368 15.95076,16.16752 -16.08192,16.03615 -15.95125,-16.16802 z m 36.95299,0.1507 15.95125,16.16752 -16.0839,16.03765 -15.95125,-16.16753 z m 36.95348,0.15318 15.95076,16.16753 -16.08243,16.03664 -15.95125,-16.16802 z m -351.13174,17.12976 15.95127,16.16802 -16.08392,16.03763 -15.95126,-16.16801 z m 36.9515,0.15269 15.95275,16.169 -16.08195,16.03616 -15.95271,-16.16951 z m 36.95447,0.15169 15.95126,16.16802 -16.08244,16.03566 -15.95075,-16.16753 z m 36.95198,0.15219 15.95275,16.16951 -16.08194,16.03565 -15.95273,-16.1695 z m 36.95447,0.1517 15.95127,16.16802 -16.08243,16.03565 -15.95077,-16.16752 z m 36.95346,0.15367 15.95127,16.16802 -16.08242,16.03616 -15.95176,-16.16802 z m 36.953,0.15071 15.95126,16.16752 -16.08242,16.03615 -15.95078,-16.16802 z m 36.95445,0.1517 15.95125,16.16802 -16.0839,16.03763 -15.95123,-16.16801 z m 36.952,0.15218 15.95125,16.16753 -16.08241,16.03615 -15.95078,-16.16752 z m 36.95447,0.1522 15.95125,16.16753 -16.08391,16.03763 -15.95125,-16.16752 z m 36.9515,0.15121 15.95273,16.1695 -16.08242,16.03665 -15.95273,-16.16952 z m -351.13125,17.13024 15.95323,16.16951 -16.08389,16.037631 -15.95273,-16.169501 z m 36.953,0.15417 15.95126,16.16752 -16.08243,16.035661 -15.95077,-16.167521 z m 36.95347,0.15071 15.95274,16.16901 -16.08241,16.036145 -15.95276,-16.169505 z m 36.95297,0.15318 15.95126,16.16752 -16.08241,16.036151 -15.95078,-16.168011 z m 36.95446,0.1517 15.95175,16.168506 -16.0824,16.03566 -15.95126,-16.168016 z m 36.952,0.15219 15.95125,16.167523 -16.08242,16.036648 -15.95125,-16.168026 z m 36.95448,0.15219 15.95123,16.167519 -16.08192,16.036158 -15.95126,-16.168016 z m 36.95346,0.1507 15.95125,16.167527 -16.0839,16.037635 -15.95126,-16.167517 z m 36.95298,0.15319 15.95125,16.16752 -16.08192,16.036148 -15.95125,-16.168015 z m 36.95298,0.15021 15.95274,16.169505 -16.08391,16.037635 -15.95273,-16.169502 z m -351.13271,17.132223 15.95273,16.169014 -16.08241,16.036151 -15.95275,-16.169506 z m 36.95495,0.151207 15.95077,16.168016 -16.08391,16.037636 -15.95075,-16.168016 z m 36.95149,0.152684 15.95275,16.169503 -16.08242,16.035658 -15.95274,-16.169511 z m 36.95448,0.151696 15.95074,16.168016 -16.0819,16.035658 -15.95078,-16.167525 z m 36.95299,0.153682 15.95174,16.168016 -16.08195,16.035655 -15.95174,-16.168021 z m 36.95346,0.150698 15.95125,16.167527 -16.08241,16.036151 -15.95078,-16.168018 z m 36.95346,0.153184 15.95078,16.167526 -16.08241,16.036647 -15.95126,-16.168015 z m 36.95299,0.150708 15.95127,16.167526 -16.08243,16.036146 -15.95075,-16.168022 z m 36.95447,0.152195 15.95125,16.167517 -16.0839,16.037639 -15.95126,-16.167521 z m 36.95149,0.151197 15.95274,16.169503 -16.08193,16.036153 -15.95273,-16.169507 z m 36.95496,0.152684 15.95125,16.167527 -16.08389,16.037637 -15.95126,-16.167528 z m -351.1332,17.131243 15.95126,16.168015 -16.08242,16.035656 -15.95078,-16.167523 z m 36.95346,0.150698 15.95275,16.169013 -16.08341,16.03764 -15.95274,-16.169011 z m 36.95299,0.153682 15.95125,16.167523 -16.08241,16.036152 -15.95075,-16.168018 z m 36.95448,0.151696 15.95173,16.168514 -16.08242,16.035658 -15.95125,-16.168019 z m 36.95197,0.152195 15.95126,16.167521 -16.08243,16.03615 -15.95075,-16.168019 z m 36.95447,0.152185 15.95126,16.167525 -16.08243,16.035658 -15.95077,-16.167524 z m 36.95198,0.151697 15.95126,16.16802 -16.08242,16.036153 -15.95125,-16.167521 z m 36.95447,0.152195 15.95127,16.167522 -16.08243,16.036153 -15.95077,-16.168019 z m 36.95299,0.150209 15.95273,16.169505 -16.08389,16.03764 -15.95275,-16.169506 z m 36.95348,0.153682 15.95125,16.167521 -16.08194,16.036149 -15.95125,-16.167522 z m -351.13125,17.129748 15.95078,16.168018 -16.08392,16.03764 -15.95074,-16.168019 z m 36.95151,0.152686 15.95273,16.169506 -16.08243,16.035657 -15.95273,-16.169506 z m 36.95496,0.151202 15.95075,16.168019 -16.0839,16.037637 -15.95075,-16.168018 z m 36.95248,0.154174 15.95174,16.168019 -16.08241,16.035654 -15.95126,-16.168017 z m 36.95347,0.150705 15.95078,16.167521 -16.08194,16.035658 -15.95126,-16.167524 z m 36.95299,0.153181 15.95125,16.167524 -16.08193,16.036153 -15.95126,-16.168019 z m 36.95347,0.150705 15.95077,16.167524 -16.08194,16.036152 -15.95075,-16.168018 z m 36.95298,0.153184 15.95125,16.167524 -16.08241,16.036648 -15.95126,-16.168019 z m 36.95297,0.150211 15.95275,16.169502 -16.08194,16.036153 -15.95273,-16.169506 z m 36.95497,0.152686 15.95125,16.167523 -16.0839,16.037638 -15.95126,-16.167521 z m 36.9515,0.1512 15.95273,16.169506 -16.08193,16.036152 -15.95274,-16.169507 z m -351.13125,17.130248 15.95275,16.169503 -16.0839,16.03764 -15.95272,-16.169009 z m 36.95299,0.154174 15.95078,16.167521 -16.08194,16.0356572 -15.95075,-16.1675242 z m 36.95496,0.1512 15.95126,16.168513 -16.08392,16.0376392 -15.95126,-16.1685132 z m 36.95149,0.152686 15.95077,16.167524 -16.08192,16.0361524 -15.95077,-16.1680184 z m 36.95447,0.151697 15.95126,16.168019 -16.08244,16.0356546 -15.95074,-16.1675206 z m 36.95201,0.152192 15.95123,16.167524 -16.08242,16.0361497 -15.95075,-16.1675207 z m 36.95445,0.152192 15.95126,16.167524 -16.08242,16.0361498 -15.95078,-16.1680188 z m 36.9515,0.151199 15.95274,16.169506 -16.08244,16.0366478 -15.95273,-16.1695058 z m 36.95495,0.152689 15.95126,16.167522 -16.08242,16.036152 -15.95077,-16.167523 z m 36.95298,0.150208 15.95274,16.169505 -16.08391,16.0376409 -15.95272,-16.1695069 z m -351.1332,17.13223 15.95322,16.1690092 -16.08242,16.036153 -15.95275,-16.169507 z m 36.95495,0.1512 15.95125,16.1680184 -16.0839,16.03764 -15.95076,-16.1680183 z m 36.95299,0.15368 15.95173,16.1685124 -16.08242,16.0356571 -15.95125,-16.1680182 z m 36.95396,0.150704 15.95076,16.1675236 -16.08391,16.037638 -15.95075,-16.1675222 z m 36.95249,0.153679 15.95125,16.1675236 -16.08241,16.0361511 -15.95078,-16.1680201 z m 36.95346,0.150705 15.95078,16.1675209 -16.08194,16.036153 -15.95125,-16.1680192 z m 36.95298,0.153184 15.95126,16.1675209 L 473.82849,9.279272 457.87775,-6.8887463 Z m 36.953,0.150207 15.95274,16.169506 -16.08194,16.036152 -15.95274,-16.1695061 z m 36.95348,0.153679 15.95125,16.1680191 -16.08243,16.036152 -15.95126,-16.1675232 z m 36.95297,0.150209 15.95273,16.1695071 -16.08192,16.0361511 -15.95275,-16.169507 z m 36.95495,0.152688 L 637.7253,-6.1500947 621.64141,9.8875434 605.69016,-6.2799789 Z M 270.64084,-5.1863806 286.59162,10.981639 270.50968,27.017295 254.55842,10.849772 Z m 36.95496,0.1516971 15.95125,16.1680185 -16.08391,16.037639 -15.95126,-16.168019 z m 36.95151,0.1526871 15.95076,16.1675234 -16.08194,16.036151 -15.95125,-16.168018 z m 36.95493,0.151697 15.95078,16.1675214 -16.08391,16.037639 -15.95074,-16.167522 z m 36.95152,0.1521893 15.95076,16.1675241 -16.08194,16.036152 -15.95075,-16.167523 z m 36.95446,0.152192 15.95125,16.1675241 -16.08241,16.036151 -15.95079,-16.168018 z m 36.9515,0.1512021 15.95273,16.169505 L 492.23053,27.93094 476.2778,11.761435 Z m 36.95495,0.1526871 15.95125,16.1675219 -16.08241,16.036153 -15.95075,-16.168019 z m 36.9515,0.1516961 15.95274,16.1690088 -16.08243,16.036649 -15.95272,-16.169506 z M 603.22113,-3.8181407 619.17238,12.349382 603.08996,28.385533 587.1392,12.21801 Z M 252.0894,13.31161 268.04066,29.479628 251.95675,45.517267 236.00549,29.349249 Z m 36.95299,0.153679 15.95125,16.168514 -16.08194,16.035656 -15.95126,-16.168018 z m 36.95346,0.150705 15.95125,16.167522 -16.0839,16.037639 -15.95075,-16.167523 z m 36.95299,0.153678 15.95125,16.167523 -16.08241,16.036151 -15.95078,-16.168018 z m 36.95349,0.150209 15.95123,16.167523 -16.08388,16.037638 -15.95079,-16.167522 z m 36.95295,0.153679 15.95127,16.167523 -16.08242,16.036151 -15.95075,-16.168018 z m 36.953,0.150209 15.95274,16.169506 L 473.67858,46.42893 457.72585,30.259921 Z M 510.76174,14.377448 526.713,30.544971 510.63058,46.581121 494.67982,30.4136 Z m 36.95299,0.150209 15.95274,16.169505 -16.08194,16.036152 -15.95322,-16.169505 z m 36.95348,0.153679 15.95125,16.168018 -16.08242,16.036152 -15.95125,-16.167523 z m 36.95298,0.150209 15.95274,16.169505 -16.08194,16.036152 -15.95273,-16.169506 z m -351.12977,17.131733 15.95126,16.168018 -16.08391,16.03764 -15.95123,-16.168019 z m 36.95152,0.152688 15.95076,16.167522 -16.08194,16.036153 -15.95125,-16.168019 z m 36.95496,0.1512 15.95076,16.168018 -16.08392,16.037638 -15.95075,-16.168017 z m 36.9515,0.152687 15.95075,16.167523 -16.08194,16.036151 -15.95124,-16.168018 z m 36.95495,0.151697 15.95075,16.167521 -16.0839,16.03764 -15.95075,-16.167523 z m 36.95099,0.151696 15.95276,16.169504 -16.08195,16.036153 -15.95272,-16.169506 z m 36.95496,0.152687 15.95078,16.167523 -16.08195,16.036151 -15.95074,-16.168018 z m 36.95153,0.151696 15.95271,16.16901 -16.08194,16.03615 -15.95271,-16.169504 z m 36.95494,0.152192 15.95125,16.167522 L 565.9856,65.383494 550.03483,49.215973 Z M 603.06826,33.331517 619.021,49.501022 602.93857,65.537174 586.98585,49.367668 Z M 251.93852,50.462755 267.88978,66.631269 251.80734,82.667421 235.8556,66.499403 Z m 36.95296,0.150704 15.95125,16.16802 -16.08387,16.037637 -15.95126,-16.168018 z m 36.95298,0.154175 15.95079,16.167521 -16.08195,16.035658 -15.95074,-16.167524 z m 36.95349,0.150209 15.95124,16.167522 -16.08388,16.03764 -15.95125,-16.167524 z m 36.95297,0.153679 15.95125,16.167522 -16.0824,16.036153 -15.95076,-16.168019 z m 36.95349,0.149713 15.95271,16.169506 -16.08389,16.037637 -15.95273,-16.169503 z m 36.95298,0.154175 15.95123,16.167523 -16.08241,16.03615 -15.95076,-16.167521 z m 36.95296,0.150209 15.95275,16.169507 -16.08242,16.036149 -15.95274,-16.169504 z m 36.9535,0.153679 15.95125,16.168019 -16.08244,16.035655 -15.95075,-16.167523 z m 36.95297,0.150208 15.95273,16.169506 -16.08242,16.036151 -15.95274,-16.169505 z m 36.95298,0.153679 15.95175,16.168018 -16.08291,16.036153 -15.95125,-16.168019 z M 270.33858,69.113433 286.28984,85.280954 270.20739,101.31711 254.25616,85.149583 Z m 36.95445,0.151694 15.95125,16.168019 -16.0839,16.037644 -15.95076,-16.168022 z m 36.952,0.15269 15.95074,16.167521 -16.0819,16.036152 -15.95125,-16.168018 z m 36.95495,0.151694 15.95076,16.167524 -16.08391,16.037635 -15.95075,-16.167519 z m 36.951,0.151697 15.95274,16.169506 -16.08241,16.036146 -15.95276,-16.169499 z m 36.95546,0.152192 15.95075,16.167521 -16.08388,16.037639 -15.95078,-16.167523 z m 36.95102,0.151695 15.95271,16.169505 -16.08241,16.03615 -15.95275,-16.169503 z m 36.95495,0.152689 15.95076,16.167521 -16.08195,16.036155 -15.95125,-16.168022 z m 36.95148,0.151694 15.95274,16.169507 -16.08193,16.035655 -15.95322,-16.169504 z m 36.95447,0.151697 15.95125,16.168514 -16.08193,16.035651 -15.95125,-16.168012 z m -351.13123,17.130246 15.95124,16.168019 -16.08388,16.03764 -15.95126,-16.16802 z m 36.95347,0.153679 15.95076,16.16752 -16.08243,16.03615 -15.95125,-16.16752 z m 36.95299,0.150705 15.95126,16.167525 -16.08391,16.03764 -15.95126,-16.16752 z m 36.95296,0.153679 15.95078,16.167526 -16.08194,16.03615 -15.95125,-16.16802 z m 36.95298,0.149712 15.95276,16.169514 -16.08341,16.03763 -15.95323,-16.1695 z m 36.95349,0.154177 15.95076,16.167517 -16.08194,16.03616 -15.95125,-16.16802 z m 36.95297,0.149713 15.95274,16.169504 -16.0834,16.03764 -15.95274,-16.16951 z m 36.95349,0.154174 15.95075,16.16802 -16.08191,16.03565 -15.95078,-16.16751 z m 36.95298,0.150209 15.95272,16.169511 -16.08242,16.03615 -15.95273,-16.16951 z m 36.95297,0.153679 15.95174,16.168012 -16.08241,16.03566 -15.95125,-16.16801 z m 36.95348,0.150705 15.95274,16.169007 -16.08243,16.03615 -15.95273,-16.1695 z m -351.13025,17.131237 15.95126,16.16802 -16.08392,16.03764 -15.95125,-16.16802 z m 36.95199,0.15219 15.95126,16.16752 -16.08241,16.03665 -15.95125,-16.16802 z m 36.95446,0.1517 15.95125,16.16802 -16.08391,16.03763 -15.95074,-16.16801 z m 36.95152,0.15219 15.95272,16.16951 -16.08242,16.03565 -15.95275,-16.16901 z m 36.95493,0.15219 15.95125,16.16753 -16.08387,16.03763 -15.95078,-16.16752 z m 36.95152,0.1517 15.95272,16.1695 -16.08241,16.03615 -15.95272,-16.16949 z m 36.95544,0.15219 15.95078,16.16752 -16.08392,16.03765 -15.95077,-16.16753 z m 36.95101,0.1522 15.95272,16.169 -16.08241,16.03615 -15.95272,-16.1695 z m 36.95446,0.15168 15.95125,16.16803 -16.08192,16.03615 -15.95175,-16.16802 z m 36.952,0.1522 15.95273,16.1695 -16.08242,16.03566 -15.95274,-16.1695 z m -351.13026,17.13124 15.95125,16.16802 -16.08191,16.03565 -15.95126,-16.16752 z m 36.95349,0.1507 15.95125,16.16802 -16.0839,16.03764 -15.95126,-16.16752 z m 36.95299,0.15368 15.95122,16.16753 -16.08241,16.03615 -15.95126,-16.16753 z m 36.95296,0.15021 15.95275,16.1695 -16.08392,16.03764 -15.95271,-16.1695 z m 36.95349,0.15417 15.95074,16.16753 -16.08193,16.03615 -15.95123,-16.16802 z m 36.95299,0.14971 15.95271,16.16952 -16.0839,16.03763 -15.95273,-16.1695 z m 36.95346,0.15418 15.95074,16.16752 -16.0819,16.03616 -15.95126,-16.16753 z m 36.95298,0.14971 15.95273,16.16951 -16.08391,16.03764 -15.95272,-16.1695 z m 36.953,0.15369 15.95124,16.16851 -16.08193,16.03565 -15.95126,-16.16801 z m 36.95296,0.1507 15.95323,16.16951 -16.08242,16.03615 -15.95275,-16.16951 z m 36.95347,0.15368 15.95125,16.16752 -16.08241,16.03615 -15.95077,-16.16801 z m -351.13124,17.13024 15.95126,16.16753 -16.08241,16.03615 -15.95077,-16.16802 z m 36.95446,0.1517 15.95126,16.16802 -16.08388,16.03764 -15.95127,-16.16802 z m 36.95152,0.15169 15.95273,16.16951 -16.08243,16.03616 -15.95274,-16.16902 z m 36.95495,0.1527 15.95124,16.16752 -16.08388,16.03763 -15.95126,-16.16752 z m 36.951,0.15169 15.95323,16.16951 -16.08243,16.03615 -15.95272,-16.16951 z m 36.95546,0.15219 15.95126,16.16753 -16.08392,16.03763 -15.95125,-16.16751 z m 36.9515,0.1517 15.95271,16.16951 -16.08241,16.03615 -15.95273,-16.16951 z m 36.95495,0.15169 15.95125,16.16802 -16.0839,16.03764 -15.95125,-16.16802 z m 36.95149,0.1527 15.95275,16.1695 -16.08243,16.03565 -15.95273,-16.1695 z m 36.95447,0.15169 15.95076,16.16802 -16.08192,16.03565 -15.95126,-16.16752 z m -351.13124,17.13025 15.95076,16.16801 -16.0834,16.03764 -15.95125,-16.16802 z m 36.953,0.15367 15.95126,16.16753 -16.08195,16.03615 -15.95125,-16.16802 z m 36.95298,0.15021 15.95272,16.1695 -16.08391,16.03765 -15.95272,-16.1695 z m 36.95346,0.15368 15.95126,16.16753 -16.08241,16.03664 -15.95125,-16.16802 z m 36.95299,0.15021 15.95272,16.1695 -16.0839,16.03764 -15.95272,-16.1695 z m 36.95346,0.15417 15.95076,16.16753 -16.08192,16.03615 -15.95125,-16.16752 z m 36.95299,0.14972 15.95272,16.1695 -16.0839,16.03764 -15.95272,-16.1695 z m 36.95299,0.15367 15.95126,16.16852 -16.08194,16.03566 -15.95176,-16.16802 z m 36.95347,0.15071 15.95273,16.16902 -16.0839,16.03763 -15.95274,-16.16901 z m 36.95297,0.15368 15.95077,16.16752 -16.08193,16.03615 -15.95076,-16.16802 z m 36.95299,0.1507 15.95274,16.16902 -16.08194,16.03615 -15.95273,-16.16951 z m -351.12974,17.13125 15.95123,16.16801 -16.08389,16.03764 -15.95125,-16.16802 z m 36.95148,0.15169 15.95273,16.16951 -16.08191,16.03565 -15.95274,-16.16901 z m 36.95497,0.15269 15.95125,16.16752 -16.0839,16.03764 -15.95126,-16.16753 z m 36.9515,0.1512 15.95272,16.16951 -16.08242,16.03664 -15.95273,-16.16951 z m 36.95495,0.15269 15.95125,16.16751 -16.08389,16.03764 -15.95127,-16.16752 z m 36.95101,0.15169 15.95272,16.16951 -16.08193,16.03615 -15.95272,-16.16951 z m 36.95494,0.1517 15.95177,16.16802 -16.08392,16.03763 -15.95126,-16.16801 z m 36.95152,0.15268 15.95272,16.16951 -16.08195,16.03566 -15.95271,-16.16951 z m 36.95494,0.15121 15.95125,16.16801 -16.08389,16.03764 -15.95077,-16.16801 z m 36.952,0.15268 15.95273,16.16951 -16.08242,16.03565 -15.95274,-16.1695 z m -351.13024,17.13174 15.95125,16.16752 -16.08244,16.03566 -15.95075,-16.16753 z m 36.95298,0.15021 15.95273,16.1695 -16.08391,16.03764 -15.95272,-16.16951 z m 36.95347,0.15368 15.95125,16.16752 -16.08241,16.03615 -15.95077,-16.16802 z m 36.95298,0.1502 15.95273,16.16951 -16.08392,16.03764 -15.95271,-16.16951 z m 36.95347,0.15368 15.95126,16.16753 -16.08243,16.03665 -15.95125,-16.16803 z m 36.95299,0.15021 15.95271,16.1695 -16.08387,16.03764 -15.95276,-16.1695 z m 36.95298,0.15368 15.95126,16.16802 -16.08194,16.03615 -15.95174,-16.16802 z m 36.95346,0.15021 15.95276,16.1695 -16.08392,16.03764 -15.95274,-16.1695 z m 36.95299,0.15417 15.95076,16.16753 -16.08192,16.03565 -15.95126,-16.16752 z m 36.95348,0.15021 15.95273,16.1695 -16.08391,16.03765 -15.95273,-16.16951 z m 36.95297,0.15368 15.95076,16.16752 -16.08192,16.03616 -15.95126,-16.16803 z m -351.13172,17.12975 15.95272,16.1695 -16.08192,16.03566 -15.95273,-16.1695 z m 36.95495,0.15219 15.95126,16.16802 -16.0839,16.03764 -15.95126,-16.16802 z m 36.9515,0.1517 15.95272,16.1695 -16.08191,16.03615 -15.95275,-16.1695 z m 36.95496,0.15268 15.95125,16.16753 -16.0839,16.03764 -15.95125,-16.16753 z m 36.95149,0.15121 15.95275,16.16951 -16.08244,16.03663 -15.95272,-16.16949 z m 36.95448,0.15219 15.95174,16.16801 -16.08392,16.03765 -15.95173,-16.16803 z m 36.9515,0.15269 15.95271,16.16901 -16.08191,16.03615 -15.95274,-16.16951 z m 36.95495,0.1512 15.95125,16.16801 -16.0839,16.03764 -15.95125,-16.16802 z m 36.95149,0.15268 15.95274,16.16951 -16.08193,16.03566 -15.95273,-16.16951 z m 36.95496,0.1517 15.95126,16.16753 -16.08391,16.03763 -15.95075,-16.16752 z m -351.13173,17.13024 15.95273,16.16902 -16.08339,16.03764 -15.95275,-16.16951 z m 36.95348,0.15369 15.95126,16.16751 -16.08242,16.03616 -15.95078,-16.16801 z m 36.95299,0.15021 15.95272,16.1695 -16.08389,16.03764 -15.95274,-16.16951 z m 36.95346,0.15368 15.95125,16.16752 -16.0824,16.03614 -15.95077,-16.16751 z m 36.95299,0.1502 15.95271,16.16951 -16.08387,16.03764 -15.95275,-16.16951 z m 36.95298,0.15319 15.95173,16.16851 -16.08241,16.03615 -15.95174,-16.16802 z m 36.95346,0.1507 15.95276,16.1695 -16.08391,16.03765 -15.95275,-16.16951 z m 36.953,0.15368 15.95074,16.16802 -16.0819,16.03566 -15.95127,-16.16753 z m 36.95346,0.15071 15.95274,16.169 -16.0839,16.03764 -15.95272,-16.16901 z m 36.95298,0.15367 15.95077,16.16753 -16.08193,16.03615 -15.95125,-16.16802 z m 36.95348,0.15021 15.95224,16.16901 -16.0839,16.03764 -15.95224,-16.16901 z m -351.13024,17.13173 15.95076,16.16803 -16.08341,16.03715 -15.95076,-16.16803 z m 36.95149,0.1517 15.95276,16.1695 -16.08195,16.03565 -15.95274,-16.169 z m 36.95496,0.15269 15.95075,16.16752 -16.0834,16.03764 -15.95126,-16.16752 z m 36.9515,0.1512 15.95274,16.1695 -16.08194,16.03617 -15.95272,-16.16952 z m 36.95447,0.15219 15.95126,16.16802 -16.08344,16.03765 -15.95172,-16.16803 z m 36.95198,0.15219 15.95274,16.16901 -16.08242,16.03665 -15.95274,-16.1695 z m 36.95447,0.1517 15.95127,16.16801 -16.08392,16.03764 -15.95126,-16.16802 z m 36.9515,0.15269 15.95272,16.1695 -16.08192,16.03564 -15.95273,-16.16949 z m 36.95495,0.1512 15.95125,16.16801 -16.0839,16.03764 -15.95125,-16.16752 z m 36.95151,0.15268 15.95224,16.16902 -16.08193,16.03615 L 586.079,272.2671 Z m -351.12976,17.13173 15.95126,16.16754 -16.08242,16.03613 -15.95078,-16.16802 z m 36.95298,0.15021 15.95272,16.16953 -16.0834,16.03713 -15.95272,-16.1695 z m 36.95346,0.15368 15.95126,16.16752 -16.08241,16.03616 -15.95075,-16.16801 z m 36.95299,0.15021 15.95275,16.1695 -16.08391,16.03765 -15.95274,-16.16951 z m 36.95299,0.15319 15.95174,16.16802 -16.08243,16.03615 -15.95125,-16.16801 z m 36.95347,0.15071 15.95274,16.1695 -16.0839,16.03763 -15.95275,-16.16949 z m 36.95298,0.15318 15.95126,16.16802 -16.08242,16.03614 -15.95125,-16.16751 z m 36.95347,0.1512 15.95274,16.16902 -16.0839,16.03763 -15.95272,-16.16901 z m 36.95251,0.15368 15.95125,16.16753 -16.08194,16.03615 -15.95125,-16.16804 z m 36.95395,0.15021 15.95225,16.16899 -16.08391,16.03766 -15.95224,-16.16903 z m 36.95249,0.15367 15.95125,16.16752 -16.08192,16.03615 -15.95126,-16.16801 z m -351.13123,17.12974 15.95274,16.16951 -16.08244,16.03567 -15.95272,-16.16902 z m 36.95495,0.1527 15.95074,16.16753 -16.08339,16.03714 -15.95075,-16.16752 z m 36.9515,0.1512 15.95274,16.16951 -16.08241,16.03615 -15.95275,-16.1695 z m 36.95447,0.15218 15.95126,16.16802 -16.08391,16.03766 -15.95125,-16.16802 z m 36.95198,0.15172 15.95274,16.1695 -16.08193,16.03613 -15.95323,-16.16948 z m 36.95448,0.15218 15.95125,16.16802 -16.08391,16.03765 -15.95126,-16.16804 z m 36.952,0.15219 15.95272,16.16951 -16.08242,16.03616 -15.95275,-16.16951 z m 36.95444,0.15171 15.95125,16.16801 -16.08389,16.03763 -15.95126,-16.16801 z m 36.95151,0.15267 15.95224,16.169 -16.08193,16.03567 -15.95224,-16.16899 z m 36.95495,0.1517 15.95126,16.16751 -16.0839,16.03766 -15.95126,-16.16754 z m -351.13173,17.12976 15.95273,16.16949 -16.08341,16.03765 -15.95322,-16.16951 z m 36.95347,0.15417 15.95078,16.16751 -16.08194,16.03615 -15.95126,-16.16801 z m 36.95251,0.15021 15.95322,16.16952 -16.08343,16.03711 -15.95272,-16.16948 z m 36.95346,0.15318 15.95126,16.16801 -16.08195,16.03616 -15.95124,-16.16802 z m 36.95347,0.15069 15.95274,16.16952 -16.0839,16.03764 -15.95273,-16.1695 z m 36.95298,0.15321 15.95126,16.16801 -16.08242,16.03565 -15.95075,-16.16753 z m 36.95346,0.15069 15.95276,16.16951 -16.08391,16.03763 -15.95272,-16.16949 z m 36.953,0.15369 15.95126,16.1675 -16.08293,16.03615 -15.95075,-16.16749 z m 36.95349,0.15068 15.95223,16.16901 -16.0839,16.03766 -15.95225,-16.16901 z m 36.95247,0.1537 15.95125,16.16752 -16.08191,16.03613 -15.95125,-16.168 z m 36.95348,0.1497 15.95273,16.16951 -16.0839,16.03765 -15.95273,-16.16951 z m -351.12977,17.13224 15.95126,16.16754 -16.0839,16.03762 -15.95075,-16.16753 z m 36.9515,0.15168 15.95276,16.16952 -16.08243,16.03615 -15.95274,-16.16952 z m 36.95448,0.15222 15.95126,16.16801 -16.08343,16.03714 -15.95122,-16.16803 z m 36.952,0.15168 15.95272,16.16951 -16.08241,16.03616 -15.95275,-16.16951 z m 36.95445,0.15219 15.95075,16.16753 -16.0834,16.03763 -15.95126,-16.16751 z m 36.952,0.15219 15.95272,16.16903 -16.08241,16.03613 -15.95272,-16.16949 z m 36.95445,0.1517 15.95078,16.16802 -16.08343,16.03763 -15.95125,-16.16802 z m 36.952,0.1522 15.95225,16.169 -16.08243,16.03615 -15.95223,-16.169 z m 36.95447,0.15218 15.95125,16.16754 -16.0839,16.03763 -15.95126,-16.16754 z m 36.951,0.15171 15.95274,16.16948 -16.08193,16.03616 -15.95274,-16.16951 z m -351.12926,17.13222 15.95077,16.16753 -16.08194,16.03616 -15.95126,-16.16805 z m 36.95298,0.1497 15.95274,16.16951 -16.0839,16.03765 -15.95275,-16.1695 z m 36.95298,0.15369 15.95125,16.16801 -16.08192,16.03616 -15.95126,-16.16802 z m 36.95299,0.15071 15.95272,16.16949 -16.0834,16.03714 -15.95272,-16.16948 z m 36.95347,0.15318 15.95125,16.16802 -16.08242,16.03564 -15.95075,-16.1675 z m 36.95298,0.15069 15.95323,16.16952 -16.08391,16.03765 -15.95272,-16.16951 z m 36.95347,0.15369 15.95125,16.16753 -16.08241,16.03565 -15.95076,-16.16753 z m 36.95349,0.15072 15.95224,16.16901 -16.08391,16.03762 -15.95224,-16.169 z m 36.95298,0.15318 15.95124,16.1675 -16.0829,16.03667 -15.95078,-16.16802 z m 36.95298,0.15021 15.95272,16.16949 -16.0839,16.03764 -15.95273,-16.1695 z m 36.95297,0.15417 15.95126,16.16753 -16.08242,16.03613 -15.95077,-16.16801 z m -351.13172,17.12975 15.95272,16.16949 -16.08192,16.03568 -15.95274,-16.16901 z m 36.95495,0.15169 15.95174,16.16801 -16.08388,16.03765 -15.95126,-16.16802 z m 36.95201,0.15218 15.95272,16.16952 -16.08242,16.03615 -15.95276,-16.16951 z m 36.95444,0.1522 15.95076,16.16753 -16.0834,16.03714 -15.95077,-16.16753 z m 36.95201,0.15218 15.95272,16.16903 -16.08242,16.03616 -15.95272,-16.16952 z m 36.95445,0.15171 15.95078,16.16802 -16.08392,16.03764 -15.95077,-16.168 z m 36.95199,0.15219 15.95225,16.169 -16.08242,16.03568 -15.95225,-16.16903 z m 36.95445,0.15171 15.95078,16.16801 -16.0839,16.03763 -15.95076,-16.16801 z m 36.95152,0.15168 15.95273,16.16951 -16.08242,16.03615 -15.95273,-16.16899 z m 36.95495,0.1527 15.95077,16.16753 -16.08341,16.03763 -15.95125,-16.16753 z m -351.13174,17.12975 15.95276,16.16951 -16.08392,16.03763 -15.95271,-16.16951 z m 36.95299,0.15366 15.95126,16.16805 -16.08194,16.03612 L 271.44808,401 Z m 36.95349,0.15021 15.95272,16.16951 -16.08391,16.03766 -15.95272,-16.16951 z m 36.95296,0.15369 15.95078,16.16802 -16.08194,16.03567 -15.95126,-16.16754 z m 36.95299,0.15072 15.95275,16.16948 -16.08342,16.03715 -15.95273,-16.16948 z m 36.95349,0.15317 15.95076,16.16802 -16.08195,16.03565 -15.95125,-16.16751 z m 36.95295,0.1507 15.95276,16.16901 -16.08392,16.03764 -15.95222,-16.169 z m 36.9535,0.15368 15.95076,16.16754 -16.08194,16.03613 -15.95075,-16.16802 z m 36.95297,0.15021 15.95274,16.16952 -16.08391,16.03762 -15.95273,-16.16951 z m 36.95348,0.15369 15.95125,16.16751 -16.08291,16.03666 -15.95076,-16.16804 z m 36.95298,0.15021 15.95274,16.16949 -16.08391,16.03765 -15.95273,-16.16951 z m -351.13025,17.13172 15.95173,16.16803 -16.08387,16.03763 -15.95176,-16.16802 z m 36.95149,0.15221 15.95276,16.16949 -16.08194,16.03614 -15.95272,-16.16951 z m 36.95497,0.15168 15.95125,16.16753 -16.0839,16.03762 -15.95075,-16.1675 z m 36.9515,0.15218 15.95273,16.16952 -16.08193,16.03616 -15.95272,-16.16952 z m 36.95495,0.1522 15.95077,16.16753 -16.08342,16.03762 -15.95076,-16.168 z m 36.95151,0.15218 15.95272,16.16904 -16.08241,16.03564 -15.95224,-16.169 z m 36.95496,0.15171 15.95075,16.16802 -16.0839,16.03765 -15.95075,-16.16804 z m 36.9515,0.15171 15.95273,16.16949 -16.08243,16.03615 -15.95272,-16.16951 z m 36.95495,0.15267 15.95075,16.16754 -16.0839,16.03762 -15.95075,-16.1675 z m 36.9515,0.15121 15.95272,16.1695 -16.0824,16.03664 -15.95275,-16.16949 z m -351.13025,17.13173 15.95175,16.16801 -16.08244,16.03666 -15.95174,-16.16852 z m 36.95349,0.15072 15.95272,16.16948 -16.08391,16.03766 -15.95273,-16.16952 z m 36.95295,0.15366 15.95078,16.16753 -16.08193,16.03616 -15.95126,-16.16754 z m 36.9535,0.15021 15.95272,16.1695 -16.08391,16.03766 -15.95272,-16.16952 z m 36.95298,0.15368 15.95075,16.16802 -16.08194,16.03564 -15.95125,-16.1675 z m 36.95296,0.1507 15.95224,16.16902 -16.08339,16.03715 -15.95225,-16.16852 z m 36.9535,0.15368 15.95075,16.16753 -16.08194,16.03616 -15.95124,-16.16804 z m 36.95247,0.15021 15.95273,16.16951 -16.08341,16.03763 -15.95271,-16.16948 z m 36.95397,0.15369 15.95076,16.1675 -16.08192,16.03616 -15.95125,-16.16802 z m 36.9525,0.15021 15.95322,16.1695 -16.08391,16.03763 -15.95273,-16.1695 z m 36.95347,0.15317 15.95125,16.16802 -16.08242,16.03666 -15.95127,-16.16804 z m -351.13124,17.13024 15.95273,16.16951 -16.08243,16.03664 -15.95272,-16.16948 z m 36.95445,0.1522 15.95126,16.16752 -16.08391,16.03766 -15.95123,-16.16754 z m 36.9515,0.15218 15.95274,16.16951 -16.08192,16.03616 -15.95273,-16.16951 z m 36.95496,0.15171 15.95125,16.16801 -16.08388,16.03766 -15.95126,-16.16802 z m 36.95151,0.1527 15.95273,16.169 -16.08243,16.03565 -15.95222,-16.16901 z m 36.95446,0.15168 15.95126,16.16801 -16.08341,16.03715 -15.95077,-16.16802 z m 36.952,0.1517 15.95272,16.16952 -16.08241,16.03565 -15.95273,-16.16901 z m 36.95495,0.15268 15.95075,16.16752 -16.0839,16.03766 -15.95075,-16.16753 z m 36.9515,0.15119 15.95272,16.16952 -16.08241,16.03616 -15.95273,-16.16952 z m 36.95446,0.15222 15.95126,16.16802 -16.08391,16.03762 -15.95124,-16.16801 z"/> <circle r="198.47371" cy="160.19896" cx="436.26062" id="circle944" style="opacity:1;fill:#c83737;fill-opacity:1;fill-rule:evenodd;stroke:none;stroke-width:3.086;stroke-linecap:round;stroke-linejoin:round;stroke-miterlimit:4;stroke-dasharray:none;stroke-opacity:1;paint-order:fill markers stroke"/> <circle style="opacity:1;fill:#ffffff;fill-opacity:1;fill-rule:evenodd;stroke:#ffffff;stroke-width:2.86499;stroke-linecap:round;stroke-linejoin:round;stroke-miterlimit:4;stroke-dasharray:none;stroke-opacity:1;paint-order:fill markers stroke" id="path923" cx="436.26062" cy="160.19896" r="184.24493"/> <path style="color:#000000;font-style:normal;font-variant:normal;font-weight:normal;font-stretch:normal;font-size:medium;line-height:normal;font-family:sans-serif;font-variant-ligatures:normal;font-variant-position:normal;font-variant-caps:normal;font-variant-numeric:normal;font-variant-alternates:normal;font-variant-east-asian:normal;font-feature-settings:normal;font-variation-settings:normal;text-indent:0;text-align:start;text-decoration:none;text-decoration-line:none;text-decoration-style:solid;text-decoration-color:#000000;letter-spacing:normal;word-spacing:normal;text-transform:none;writing-mode:lr-tb;direction:ltr;text-orientation:mixed;dominant-baseline:auto;baseline-shift:baseline;text-anchor:start;white-space:normal;shape-padding:0;shape-margin:0;inline-size:0;clip-rule:nonzero;display:inline;overflow:visible;visibility:visible;opacity:1;isolation:auto;mix-blend-mode:normal;color-interpolation:sRGB;color-interpolation-filters:linearRGB;solid-color:#000000;solid-opacity:1;vector-effect:none;fill:#c83737;fill-opacity:1;fill-rule:evenodd;stroke:none;stroke-width:5.10614;stroke-linecap:round;stroke-linejoin:round;stroke-miterlimit:4;stroke-dasharray:none;stroke-dashoffset:0;stroke-opacity:1;paint-order:fill markers stroke;color-rendering:auto;image-rendering:auto;shape-rendering:auto;text-rendering:auto;enable-background:accumulate;stop-color:#000000;stop-opacity:1" d="m 436.25977,-15.806641 c -8.99631,-10e-7 -17.26646,5.472956 -24.44141,14.6054691 -7.17496,9.1325128 -13.46172,22.0664889 -18.73828,37.9453129 -10.55312,31.757647 -17.01172,75.328049 -17.01172,123.455079 0,48.12703 6.4586,91.69743 17.01172,123.45508 5.27656,15.87882 11.56332,28.81084 18.73828,37.94336 7.17495,9.13251 15.4451,14.60742 24.44141,14.60742 8.9963,0 17.2684,-5.47491 24.44335,-14.60742 7.17496,-9.13252 13.45977,-22.06454 18.73633,-37.94336 10.55312,-31.75765 17.01368,-75.32805 17.01367,-123.45508 10e-6,-48.12703 -6.46055,-91.697432 -17.01367,-123.455079 C 474.16289,20.865317 467.87808,7.9313409 460.70312,-1.2011719 453.52817,-10.333685 445.25607,-15.806642 436.25977,-15.806641 Z m 0,5.105469 c 6.9202,-1e-6 13.81302,4.232391 20.42968,12.654297 6.61667,8.421906 12.75029,20.890358 17.9043,36.400391 10.30802,31.020064 16.75195,74.177174 16.75195,121.845704 0,47.66853 -6.44393,90.82368 -16.75195,121.84375 -5.15401,15.51003 -11.28763,27.97848 -17.9043,36.40039 -6.61666,8.42191 -13.50948,12.65625 -20.42968,12.65625 -6.92021,0 -13.81107,-4.23434 -20.42774,-12.65625 -6.61667,-8.42191 -12.75224,-20.89036 -17.90625,-36.40039 -10.30802,-31.02007 -16.75,-74.17522 -16.75,-121.84375 0,-47.66853 6.44198,-90.82564 16.75,-121.845704 5.15401,-15.510033 11.28958,-27.978485 17.90625,-36.400391 6.61667,-8.421906 13.50753,-12.654298 20.42774,-12.654297 z m -39.2433,-13.929924 c -8.78598,1.93394 -15.68626,9.05678 -20.73024,19.5181823 -5.04399,10.4614041 -8.40335,24.4444587 -10.14307,41.0863487 -3.47944,33.28378 -0.42069,77.223935 9.9252,124.225785 10.34589,47.00185 26.01984,88.16519 43.15319,116.91175 8.56667,14.37328 17.48645,25.65149 26.45689,33.02809 8.97042,7.3766 18.22416,10.94567 27.01015,9.01173 8.78597,-1.93394 15.68773,-9.05911 20.73171,-19.52051 5.04399,-10.46141 8.40186,-24.44213 10.14158,-41.08402 3.47944,-33.28378 0.42261,-77.22436 -9.92329,-124.2262 C 483.29271,87.318206 467.61685,46.155285 450.4835,17.408723 441.91682,3.0354419 432.99853,-8.2450966 424.02809,-15.621692 c -8.97042,-7.376598 -18.22565,-10.943343 -27.01162,-9.009404 z m 1.09753,4.986106 c 6.75841,-1.487639 14.39991,1.164049 22.67234,7.96667 8.27244,6.8026176 16.94301,17.6610171 25.31072,31.700474 16.73542,28.078913 32.30619,68.841779 42.55352,115.395846 10.24732,46.55407 13.23113,90.08553 9.83251,122.59628 -1.69932,16.25538 -5.00919,29.75087 -9.6607,39.39827 -4.65151,9.6474 -10.47292,15.26449 -17.23133,16.75213 -6.75842,1.48764 -14.39843,-1.16637 -22.67087,-7.96899 -8.27244,-6.80263 -16.94491,-17.6606 -25.31262,-31.70006 -16.73542,-28.07892 -32.30387,-68.84029 -42.5512,-115.39435 -10.24732,-46.55407 -13.23346,-90.087027 -9.83483,-122.597778 1.69931,-16.255377 5.01109,-29.7512899 9.6626,-39.3986849 4.65152,-9.6473951 10.47144,-15.2621671 17.22986,-16.7498071 z m -41.32034,-5.1681 c -8.16483,3.777451 -13.37258,12.217118 -16.04974,23.5182462 -2.67718,11.3011318 -2.95205,25.6794328 -1.07358,42.3062328 3.75693,33.2536 16.19,75.508921 36.39802,119.187831 20.20802,43.67891 44.36442,80.51044 67.27686,104.90176 11.45622,12.19566 22.59194,21.2927 32.93841,26.56846 10.34645,5.27576 20.15109,6.77211 28.31592,2.99466 8.16482,-3.77745 13.37352,-12.21971 16.05068,-23.52084 2.67718,-11.30113 2.9511,-25.67684 1.07263,-42.30364 -3.75694,-33.2536 -16.18823,-75.50974 -36.39625,-119.18865 C 465.1186,65.972058 440.96042,29.14135 418.04798,4.7500308 406.59176,-7.4456296 395.45698,-16.545265 385.11052,-21.821022 c -10.34645,-5.275761 -20.15204,-6.769517 -28.31686,-2.992068 z m 2.14373,4.633598 c 6.28061,-2.905718 14.31349,-1.958723 23.85488,2.906529 9.54139,4.865247 20.34348,13.6058675 31.53363,25.5182796 22.38029,23.8248224 46.34984,60.2874184 66.36534,103.5502034 20.0155,43.26279 32.28752,85.13508 35.9572,117.61636 1.83484,16.24063 1.50349,30.13213 -0.96537,40.55391 -2.46885,10.42179 -6.94665,17.15899 -13.22725,20.06471 -6.28062,2.90572 -14.31255,1.95613 -23.85394,-2.90912 -9.5414,-4.86525 -20.34525,-13.60505 -31.5354,-25.51746 -22.3803,-23.82483 -46.34725,-60.28646 -66.36275,-103.54925 -20.0155,-43.26279 -32.29011,-85.136036 -35.9598,-117.617308 -1.83484,-16.240638 -1.50171,-30.132957 0.96715,-40.55473975 2.46886,-10.42178225 6.9457,-17.15639425 13.22631,-20.06211425 z m -41.46527,3.835377 c -7.16191,5.444334 -10.43362,14.8061989 -10.61879,26.418624 -0.18517,11.612431 2.63729,25.713665 8.04611,41.547924 10.81765,31.668519 32.04368,70.263197 61.16892,108.576787 29.12524,38.31359 60.63457,69.09111 88.25474,87.98668 13.81009,9.44778 26.64106,15.93829 37.87976,18.86652 11.23869,2.92823 21.13577,2.28189 28.29767,-3.16244 7.16189,-5.44433 10.43398,-14.80893 10.61915,-26.42136 0.18517,-11.61243 -2.63766,-25.71093 -8.04648,-41.54519 C 522.25555,164.25491 501.03108,125.65906 471.90583,87.345467 442.7806,49.031866 411.26971,18.255536 383.64954,-0.64003058 369.83945,-10.087814 357.00885,-16.581058 345.77015,-19.509287 c -11.23869,-2.928236 -21.13614,-2.279157 -28.29803,3.165172 z m 3.08969,4.064429 c 5.50913,-4.187928 13.55779,-4.989907 23.92198,-2.289518 10.36421,2.700383 22.79273,8.9145226 36.28207,18.1428784 26.97869,18.4567096 58.22623,48.9140856 87.07399,86.8626716 28.84777,37.948584 49.83418,76.203804 60.40059,107.136814 5.28319,15.4665 7.94585,29.10446 7.77508,39.81332 -0.17075,10.70885 -3.09556,18.25114 -8.60469,22.43907 -5.50913,4.18793 -13.55741,4.98717 -23.92161,2.28678 -10.36421,-2.70038 -22.79428,-8.91334 -36.28362,-18.14169 -26.97869,-18.45672 -58.22349,-48.91371 -87.07126,-86.8623 -28.84776,-37.94859 -49.83692,-76.204181 -60.40332,-107.137187 -5.2832,-15.466504 -7.9443,-29.105641 -7.77353,-39.8145 0.17076,-10.70885873 3.09519,-18.2484074 8.60432,-22.436339 z M 280.89046,0.3798308 c -5.82408,6.8566455 -7.00679,16.7029572 -4.69129,28.0836952 2.31548,11.380746 8.1033,24.545555 16.78957,38.846882 17.37253,28.602652 46.39902,61.732032 83.07962,92.888812 36.6806,31.15678 74.06951,54.44116 105.10593,66.95744 15.51821,6.25813 29.44447,9.83862 41.0499,10.2824 11.60541,0.44379 21.13216,-2.31502 26.95625,-9.17167 5.82408,-6.85664 7.00656,-16.7057 4.69107,-28.08644 -2.31549,-11.38075 -8.10309,-24.5428 -16.78935,-38.84413 C 519.70963,132.73417 490.68441,99.603295 454.0038,68.446524 417.32321,37.289737 379.93303,14.00685 348.89661,1.4905727 333.3784,-4.7675664 319.45191,-8.3508014 307.84649,-8.7945827 296.24107,-9.2383718 286.71455,-6.4768083 280.89046,0.3798308 Z m 3.8912,3.3052106 c 4.48004,-5.2743145 12.16813,-7.7877678 22.87052,-7.3785086 10.7024,0.4092517 24.1762,3.80634406 39.33399,9.9191358 30.31559,12.2255824 67.38001,35.2535844 103.71116,66.1135374 36.33114,30.859954 65.05065,63.709324 82.0197,91.647674 8.48452,13.96917 14.01668,26.71589 16.152,37.21109 2.13532,10.4952 0.90026,18.4899 -3.57978,23.76421 -4.48005,5.27432 -12.16835,7.78502 -22.87076,7.37577 -10.7024,-0.40926 -24.17746,-3.80486 -39.33525,-9.91765 C 452.76765,210.19471 415.70598,187.16649 379.37483,156.30654 343.04369,125.44659 314.32143,92.597432 297.35238,64.659086 288.86786,50.689913 283.33696,37.941709 281.20165,27.446508 279.06633,16.951307 280.30161,8.9593622 284.78166,3.6850414 Z M 248.75923,24.576753 c -4.21395,7.948348 -3.25234,17.818705 1.45554,28.435606 4.70787,10.616909 13.19043,22.229721 24.74797,34.3294 23.1151,24.199361 58.58481,50.314351 101.10562,72.857461 42.52081,22.54311 84.04105,37.2456 117.04248,42.79734 16.50072,2.77587 30.87108,3.27891 42.30059,1.2175 11.42949,-2.06141 20.14044,-6.8037 24.35439,-14.75205 4.21394,-7.94833 3.25152,-17.82133 -1.45636,-28.43823 C 553.60158,150.40687 545.11984,138.7967 533.5623,126.69702 510.44721,102.49766 474.97841,76.380933 432.4576,53.837835 389.93679,31.294719 348.41564,16.593957 315.4142,11.042216 298.91348,8.266345 284.5423,7.7606668 273.11281,9.8220843 261.68331,11.883493 252.97317,16.628414 248.75923,24.576753 Z m 4.51074,2.391445 c 3.24148,-6.11408 10.2095,-10.221482 20.74966,-12.122489 10.54016,-1.901015 24.42922,-1.479814 40.54671,1.231586 32.23496,5.4228 73.38318,19.944665 115.4989,42.273007 42.11572,22.328341 77.22542,48.235868 99.80366,71.873188 11.28912,11.81866 19.43211,23.07812 23.77366,32.86892 4.34156,9.79079 4.854,17.86408 1.61252,23.97816 -3.24149,6.11409 -10.21031,10.21885 -20.75048,12.11986 -10.54016,1.90101 -24.43014,1.48154 -40.54762,-1.22986 C 461.72201,192.53776 420.57644,178.01509 378.46072,155.68675 336.345,133.35841 301.23265,107.45169 278.65441,83.81437 267.36529,71.99571 259.22322,60.734532 254.88167,50.943732 c -4.34155,-9.790799 -4.85319,-17.861445 -1.6117,-23.975534 z m -30.68915,28.147034 c -2.40677,8.668394 0.6542,18.101268 7.53433,27.457897 6.88013,9.356639 17.66078,18.874451 31.54919,28.206721 27.77682,18.66452 68.03122,36.54403 114.40402,49.41937 46.3728,12.87534 90.08292,18.30848 123.50626,16.63609 16.71166,-0.8362 30.8542,-3.43412 41.57334,-7.90435 10.71914,-4.47021 18.20699,-10.97422 20.61375,-19.64262 2.40677,-8.66838 -0.65556,-18.10366 -7.53569,-27.46029 C 547.34589,112.47141 536.5666,102.956 522.6782,93.623739 494.90137,74.959209 454.6475,57.07782 408.27469,44.202485 361.9019,31.327131 318.19125,25.895887 284.76792,27.568275 c -16.71167,0.836194 -30.85557,3.431717 -41.57471,7.901944 -10.71914,4.470217 -18.20562,10.976628 -20.61239,19.645013 z m 4.91938,1.365857 c 1.85135,-6.667959 7.77349,-12.17725 17.65856,-16.299635 9.88508,-4.122393 23.53997,-6.696779 39.86351,-7.513552 32.64707,-1.633546 75.95503,3.703155 121.88605,16.455838 45.93101,12.752683 85.78922,30.506957 112.92092,48.737997 13.56584,9.115523 23.9389,18.361233 30.28369,26.989823 6.34478,8.62858 8.58076,16.40297 6.72941,23.07092 -1.85135,6.66797 -7.77485,12.17486 -17.65993,16.29725 -9.88508,4.12239 -23.54049,6.69866 -39.86403,7.51543 -32.64707,1.63354 -75.95263,-3.70451 -121.88364,-16.45719 C 331.50373,142.52528 291.64311,124.77236 264.51141,106.54132 250.94556,97.425805 240.57303,88.178212 234.22824,79.549621 227.88346,70.92103 225.64884,63.149057 227.5002,56.481089 Z m -23.92088,34.086232 c -0.48705,8.983116 4.53015,17.537439 13.26082,25.196289 8.73068,7.65886 21.30533,14.63663 36.87519,20.76512 31.13974,12.25696 74.29658,21.06495 122.35303,23.67049 48.05645,2.60554 91.91261,-1.48473 124.19502,-10.30305 16.1412,-4.40916 29.39461,-9.98657 38.90218,-16.65658 9.50756,-6.67001 15.42218,-14.63162 15.90923,-23.61474 0.48705,-8.98311 -4.53199,-17.539479 -13.26266,-25.19833 C 533.08145,76.767658 520.50865,69.791939 504.93878,63.663456 473.79904,51.406488 430.64231,42.59655 382.58586,39.991015 334.52941,37.38546 290.67314,41.477691 258.39074,50.296009 c -16.14121,4.40916 -29.39647,9.984521 -38.90403,16.654534 -9.50756,6.670003 -15.42034,14.633671 -15.90739,23.616778 z m 5.09799,0.276404 c 0.37465,-6.910051 4.974,-13.563625 13.74177,-19.714628 8.76778,-6.151013 21.55001,-11.60061 37.31633,-15.907364 31.53264,-8.61351 74.97532,-12.711511 122.57394,-10.130789 47.59862,2.580722 90.34161,11.351574 120.75812,23.32387 15.20825,5.986147 27.32635,12.7858 35.37769,19.848719 8.05134,7.062909 11.9063,14.174867 11.53165,21.084917 -0.37466,6.91006 -4.97585,13.56157 -13.74363,19.71258 -8.76777,6.15101 -21.55011,11.60256 -37.31643,15.90931 -31.53264,8.61351 -74.97326,12.70967 -122.57188,10.12895 -47.59862,-2.58072 -90.34367,-11.34973 -120.76018,-23.32203 -15.20825,-5.98615 -27.32625,-12.78775 -35.37758,-19.85066 -8.05134,-7.06292 -11.90446,-14.172814 -11.5298,-21.082875 z m -16.03409,38.431595 c 1.45544,8.8778 8.19426,16.15357 18.36725,21.75653 10.17298,5.60296 23.95366,9.71442 40.47695,12.35256 33.0466,5.27629 77.08791,4.6009 124.58094,-3.18519 47.49303,-7.78609 89.44457,-21.20851 119.07656,-36.76043 14.81599,-7.77595 26.56056,-16.07206 34.41199,-24.62998 7.85143,-8.557907 11.91626,-17.604852 10.46081,-26.482649 -1.45544,-8.877788 -8.1965,-16.155174 -18.36948,-21.758129 -10.17299,-5.602963 -23.95142,-9.712812 -40.47471,-12.350955 -33.0466,-5.276282 -77.08823,-4.602828 -124.58126,3.183269 -47.49303,7.786077 -89.44425,21.210436 -119.07624,36.76235 -14.81599,7.775957 -26.56281,16.070459 -34.41424,24.628374 -7.85143,8.55791 -11.91401,17.60646 -10.45857,26.48425 z m 5.03821,-0.82597 c -1.11956,-6.82904 1.94194,-14.31578 9.18245,-22.20779 7.2405,-7.892019 18.55239,-15.962009 33.02427,-23.557367 28.94377,-15.190715 70.48984,-28.5318 117.53041,-36.24371 47.04057,-7.71191 90.66973,-8.334595 122.94881,-3.180856 16.13953,2.57687 29.43604,6.612518 38.81746,11.77951 9.38142,5.166982 14.67512,11.28396 15.79468,18.112997 1.11957,6.829047 -1.94418,14.31417 -9.18468,22.206189 -7.24051,7.892017 -18.55208,15.963937 -33.02396,23.559287 -28.94378,15.19072 -70.48823,28.52956 -117.5288,36.24147 -47.04057,7.71191 -90.67135,8.33684 -122.95042,3.1831 -16.13954,-2.57687 -29.43636,-6.61444 -38.81778,-11.78143 -9.38142,-5.167 -14.67287,-11.28236 -15.79244,-18.1114 z m -7.39755,40.97994 c 3.32987,8.35736 11.47522,14.01439 22.61483,17.29946 11.13962,3.28507 25.48195,4.33797 42.18607,3.36241 33.40823,-1.95111 76.27469,-12.07829 120.98358,-29.89194 44.70889,-17.81365 82.7942,-39.94061 108.39021,-61.498927 12.798,-10.779159 22.48457,-21.406047 28.31274,-31.451712 5.82817,-10.045652 7.85314,-19.754901 4.52326,-28.112264 -3.32987,-8.357353 -11.47776,-14.015468 -22.61737,-17.30054 -11.13963,-3.285076 -25.47942,-4.336884 -42.18353,-3.361329 -33.40823,1.951115 -76.27542,12.076473 -120.9843,29.890133 -44.7089,17.81364 -82.79349,39.942418 -108.38949,61.500739 -12.798,10.77916 -22.48712,21.40496 -28.31528,31.45062 -5.82817,10.04565 -7.8506,19.75599 -4.52072,28.11335 z m 4.74286,-1.88973 c -2.56143,-6.42871 -1.18094,-14.39855 4.19374,-23.66254 5.37467,-9.264 14.68729,-19.57704 27.18805,-30.10585 25.00153,-21.057619 62.70833,-43.017973 106.99129,-60.661915 44.28295,-17.643942 86.75823,-27.631049 119.39054,-29.536849 16.31615,-0.952899 30.16934,0.130042 40.44218,3.159504 10.27284,3.029453 16.75774,7.865432 19.31917,14.294136 2.56143,6.428714 1.1784,14.397454 -4.19628,23.661456 -5.37468,9.264003 -14.68657,19.578854 -27.18733,30.107663 -25.00153,21.057625 -62.70724,43.015435 -106.99019,60.659385 -44.28296,17.64394 -86.75933,27.63358 -119.39164,29.53938 -16.31615,0.9529 -30.17006,-0.13185 -40.4429,-3.16132 -10.27284,-3.02946 -16.7552,-7.86434 -19.31663,-14.29305 z m 1.58486,41.6121 c 5.04862,7.44615 14.21962,11.21991 25.80499,12.03349 11.58538,0.81359 25.81874,-1.24131 41.9226,-5.78495 32.20773,-9.08728 71.89496,-28.19271 111.72917,-55.20098 39.83421,-27.00827 72.27247,-56.80512 92.63565,-83.361808 C 478.8856,63.559073 486.06124,51.098309 489.59364,40.034621 493.12602,28.970948 493.01645,19.053387 487.96783,11.60724 482.91923,4.1611016 473.74551,0.38682408 462.16014,-0.42675661 450.57476,-1.24034 436.34411,0.81507429 420.24025,5.358712 388.03252,14.445993 348.3442,33.549804 308.50999,60.558079 268.67577,87.566337 236.23861,117.36482 215.87543,143.9215 c -10.18159,13.27834 -17.35995,25.73859 -20.89233,36.80227 -3.53239,11.06368 -3.4201,20.98176 1.6285,28.42789 z m 4.22575,-2.86512 c -3.88353,-5.72777 -4.24859,-13.80805 -0.99105,-24.01085 3.25752,-10.20281 10.13542,-22.27667 20.08054,-35.24662 19.89024,-25.93989 51.99465,-55.492674 91.44937,-82.243636 39.45472,-26.750963 78.79001,-45.635505 110.24971,-54.511732 15.72984,-4.4381107 29.49195,-6.3585138 40.17586,-5.6082357 10.68391,0.7502697 18.05679,4.0791241 21.94031,9.8068977 3.88353,5.727782 4.24588,13.807527 0.98835,24.010339 -3.25754,10.202812 -10.13433,22.278289 -20.07945,35.248234 -19.89024,25.939897 -51.99413,55.489963 -91.44885,82.240923 -39.45472,26.75097 -78.79054,45.63822 -110.25023,54.51445 -15.72985,4.43811 -29.49305,6.3569 -40.17696,5.60662 -10.68391,-0.75028 -18.05407,-4.07861 -21.9376,-9.80639 z m 10.49318,40.29854 c 6.53128,6.18676 16.29912,7.9008 27.78853,6.20484 11.48941,-1.69595 24.94826,-6.76255 39.69888,-14.66182 29.50123,-15.79853 64.15349,-42.98887 97.25042,-77.92888 33.09693,-34.94001 58.37136,-71.013497 72.54956,-101.326782 7.0891,-15.156639 11.41828,-28.868629 12.48972,-40.433013 1.07144,-11.5643708 -1.16756,-21.2265085 -7.69884,-27.413266 -6.53127,-6.186751 -16.30187,-7.900709 -27.79127,-6.204757 -11.48942,1.695952 -24.94551,6.7624795 -39.69612,14.66174381 C 356.42017,15.281682 321.76649,42.470672 288.66957,77.410686 255.57263,112.35069 230.29962,148.42552 216.12142,178.73881 c -7.0891,15.15664 -11.42104,28.86871 -12.49248,40.43309 -1.07144,11.56437 1.17032,21.22643 7.70159,27.41318 z m 3.51103,-3.70655 c -5.02403,-4.75901 -7.11758,-12.5719 -6.1295,-23.23644 0.98807,-10.66454 5.10963,-23.93467 12.03409,-38.7393 13.8489,-29.60924 38.84976,-65.3726 71.63138,-99.979734 32.78162,-34.607138 67.13766,-61.506095 95.95372,-76.9377066 14.40803,-7.715802 27.43556,-12.5497533 38.03097,-14.1137414 10.59541,-1.563995 18.51152,0.102081 23.53555,4.8610992 5.02404,4.75902468 7.11482,12.5719771 6.12675,23.2365258 -0.98807,10.664549 -5.10822,23.936016 -12.03267,38.740638 -13.84891,29.609251 -38.84983,65.369839 -71.63145,99.976979 -32.78163,34.60714 -67.1376,61.50886 -95.95365,76.94047 -14.40803,7.7158 -27.43698,12.54841 -38.03239,14.1124 -10.59541,1.56398 -18.50876,-0.10216 -23.5328,-4.86119 z m 18.91086,37.10066 c 7.70855,4.63808 17.61649,4.21225 28.4727,0.0861 10.85622,-4.12618 22.91124,-11.96758 35.61888,-22.85312 25.4153,-21.77106 53.41228,-55.77492 78.22436,-97.01291 24.81208,-41.23799 41.74087,-81.901357 49.07113,-114.553829 3.66513,-16.326232 4.94542,-30.648289 3.50581,-42.1726329 -1.4396,-11.5243299 -5.70333,-20.4792531 -13.41188,-25.1173361 -7.70855,-4.638077 -17.61917,-4.211574 -28.47537,-0.08539 -10.85623,4.126187 -22.90856,11.9669236 -35.61621,22.8524536 -25.41529,21.7710684 -53.41396,55.7739114 -78.22603,97.0119084 -24.81208,41.237987 -41.73919,81.902367 -49.06945,114.554837 -3.66513,16.32623 -4.94811,30.64896 -3.5085,42.1733 1.43961,11.52433 5.70601,20.47859 13.41456,25.11666 z m 2.63214,-4.37466 c -5.92962,-3.56773 -9.65376,-10.74791 -10.98134,-21.37552 -1.3276,-10.62762 -0.15508,-24.47352 3.42493,-40.42057 7.16001,-31.8941 23.8883,-72.19578 48.46399,-113.0409 24.5757,-40.845119 52.34603,-74.500726 77.17105,-95.7661564 12.4125,-10.6327108 24.0963,-18.1541806 34.10779,-21.9593046 10.01148,-3.805129 18.10067,-3.879734 24.03029,-0.311998 5.92964,3.567741 9.65109,10.7485748 10.97868,21.3761986 1.32759,10.6276234 0.15674,24.4745214 -3.42326,40.4215714 -7.16002,31.894109 -23.88896,72.193099 -48.46466,113.038219 -24.57569,40.84512 -52.34537,74.50341 -77.17038,95.76884 -12.41251,10.63271 -24.09797,18.15318 -34.10946,21.9583 -10.01149,3.80512 -18.098,3.87907 -24.02763,0.31132 z m 26.44428,32.16799 c 8.52538,2.87254 18.11014,0.32675 27.82553,-6.03674 9.7154,-6.36348 19.8029,-16.61303 29.87338,-29.97583 20.14097,-26.72561 40.17358,-65.953 55.54061,-111.56073 15.36703,-45.60773 23.15862,-88.959601 23.29819,-122.424466 0.0698,-16.732428 -1.75868,-30.9948699 -5.64202,-41.9403072 -3.88334,-10.9454248 -9.97243,-18.7744118 -18.49781,-21.6469478 -8.52537,-2.872532 -18.1126,-0.32551 -27.82799,6.037969 -9.7154,6.363486 -19.80043,16.6118063 -29.87092,29.974607 -20.14096,26.72561 -40.17542,65.952371 -55.54245,111.560105 -15.36704,45.60773 -23.15677,88.96023 -23.29634,122.42509 -0.0698,16.73243 1.7562,30.9961 5.63955,41.94153 3.88334,10.94543 9.9749,18.77319 18.50027,21.64572 z m 1.63018,-4.83821 c -6.55795,-2.20963 -11.73854,-8.42136 -15.31971,-18.51511 -3.58118,-10.09376 -5.41253,-23.868 -5.34437,-40.21182 0.13633,-32.68763 7.80985,-75.64316 23.03048,-120.81639 15.22064,-45.173235 35.10675,-84.011793 54.77994,-110.116694 9.83659,-13.0524457 19.63033,-22.9097376 28.58976,-28.778074 8.95943,-5.868341 16.84347,-7.680138 23.40142,-5.470508 6.55795,2.209634 11.73607,8.422582 15.31725,18.5163442 3.58118,10.0937626 5.41437,23.8686258 5.34621,40.2124378 -0.13633,32.687635 -7.81107,75.640684 -23.0317,120.813914 -15.22064,45.17324 -35.10553,84.01427 -54.77871,110.11917 -9.83659,13.05245 -19.63218,22.90912 -28.59162,28.77745 -8.95943,5.86834 -16.84099,7.67891 -23.39895,5.46928 z m 32.74119,25.73118 c 8.94358,0.97267 17.75698,-3.57404 25.87727,-11.87727 8.12029,-8.30323 15.76861,-20.48167 22.73104,-35.69691 13.92486,-30.43049 25.05639,-73.04718 30.25984,-120.89209 5.20345,-47.84491 3.4935,-91.858193 -3.56415,-124.570671 -3.52883,-16.356235 -8.38054,-29.8921649 -14.52604,-39.7468993 -6.14549,-9.8547237 -13.77522,-16.1916997 -22.71879,-17.1643717 -8.94357,-0.972671 -17.75912,3.575773 -25.87941,11.8789994 -8.1203,8.3032351 -15.76646,20.4799396 -22.72889,35.6951806 -13.92487,30.430493 -25.05834,73.046972 -30.26178,120.891882 -5.20346,47.8449 -3.49156,91.8584 3.56609,124.57088 3.52883,16.35624 8.37839,29.8939 14.52389,39.74863 6.14549,9.85473 13.77737,16.18997 22.72093,17.16264 z m 0.552,-5.07554 c -6.87963,-0.7482 -13.27444,-5.70103 -18.94175,-14.78895 -5.66731,-9.08793 -10.4169,-22.14645 -13.86377,-38.12281 -6.89373,-31.95272 -8.63378,-75.55355 -3.47991,-122.94264 5.15388,-47.3891 16.22592,-89.594559 29.82738,-119.318295 6.80072,-14.861863 14.24646,-26.5940616 21.73492,-34.2512142 7.48844,-7.6571538 14.79866,-11.1214268 21.6783,-10.3732218 6.87964,0.748207 13.27229,5.702758 18.93961,14.790686 5.66731,9.0879282 10.41884,22.146659 13.86571,38.123015 6.89373,31.952723 8.63205,75.5514 3.47818,122.94049 -5.15387,47.3891 -16.2242,89.59672 -29.82565,119.32045 -6.80073,14.86186 -14.24841,26.59385 -21.73686,34.251 -7.48845,7.65715 -14.79651,11.1197 -21.67616,10.37149 z m 37.50717,18.09121 c 8.94357,-0.97267 16.57351,-7.3077 22.719,-17.16243 6.1455,-9.85473 10.997,-23.3926 14.52583,-39.74884 7.05765,-32.71247 8.7676,-76.72576 3.56415,-124.57067 C 370.86491,112.35431 359.73338,69.737622 345.80852,39.307129 338.84609,24.091888 331.19799,11.915395 323.07769,3.6121595 314.9574,-4.6910668 306.14379,-9.2397221 297.20021,-8.2670499 c -8.94356,0.9726711 -16.57523,7.30985826 -22.72072,17.1645816 -6.1455,9.8547343 -10.99527,23.3904543 -14.5241,39.7466883 -7.05765,32.712478 -8.76955,76.72598 -3.56609,124.57088 5.20344,47.84491 16.33691,90.46139 30.26178,120.89188 6.96243,15.21525 14.60881,27.3939 22.7291,35.69712 8.12029,8.30323 16.93563,12.84974 25.8792,11.87706 z m -0.552,-5.07554 c -6.87964,0.74821 -14.18965,-2.71413 -21.67809,-10.37128 -7.48845,-7.65715 -14.9342,-19.38935 -21.73492,-34.25121 -13.60145,-29.72373 -24.67371,-71.93114 -29.82759,-119.32024 -5.15387,-47.38909 -3.41361,-90.987976 3.48012,-122.940698 3.44687,-15.976356 8.19646,-29.034877 13.86377,-38.122805 5.66731,-9.0879271 12.06191,-14.0426902 18.94154,-14.7908954 6.87965,-0.7482063 14.18792,2.71627876 21.67638,10.3734313 7.48845,7.6571521 14.93613,19.3891401 21.73685,34.2510031 13.60146,29.723736 24.67157,71.929404 29.82544,119.318504 5.15387,47.38909 3.41576,90.98972 -3.47797,122.94243 -3.44687,15.97636 -8.1984,29.03509 -13.86571,38.12302 -5.66732,9.08792 -12.06018,14.04054 -18.93982,14.78874 z m 40.51934,9.60532 c 8.52538,-2.87253 14.61509,-10.69967 18.49843,-21.6451 3.88335,-10.94543 5.71118,-25.20972 5.6414,-41.94215 -0.13957,-33.46487 -7.93116,-76.81674 -23.29819,-122.42447 C 360.70133,114.59149 340.66872,75.364101 320.52775,48.63849 310.45727,35.27569 300.37039,25.027992 290.65499,18.664506 280.9396,12.301027 271.35422,9.7533824 262.82884,12.625918 c -8.52537,2.872532 -14.61631,10.702142 -18.49965,21.647567 -3.88334,10.945437 -5.70995,25.207256 -5.64017,41.939684 0.13957,33.464861 7.9293,76.817361 23.29634,122.425091 15.36703,45.60773 35.40149,84.8345 55.54245,111.5601 10.07049,13.36281 20.15614,23.61298 29.87154,29.97646 9.71539,6.36348 19.302,8.90865 27.82737,6.03612 z m -1.63018,-4.83821 c -6.55795,2.20963 -14.44137,0.39968 -23.40079,-5.46866 -8.95944,-5.86833 -18.75318,-15.72563 -28.58977,-28.77807 -19.67318,-26.1049 -39.55992,-64.94532 -54.78056,-110.11855 -15.22063,-45.17323 -22.89353,-88.1269 -23.02985,-120.814538 -0.0682,-16.343813 1.76318,-30.118053 5.34436,-40.211816 3.58117,-10.093759 8.76114,-16.307333 15.31909,-18.516963 6.55796,-2.209634 14.44014,-0.39721 23.39958,5.471127 8.95943,5.868336 18.75502,15.725006 28.59161,28.777452 19.67318,26.104901 39.55745,64.944078 54.77809,110.117318 15.22063,45.17323 22.896,88.12814 23.03233,120.81577 0.0682,16.34381 -1.76504,30.11868 -5.34622,40.21243 -3.58118,10.09376 -8.75991,16.30487 -15.31787,18.5145 z m 41.63688,0.67029 c 7.70855,-4.63808 11.97329,-13.59133 13.41289,-25.11567 1.43961,-11.52433 0.15831,-25.84807 -3.50682,-42.1743 C 417.80923,242.10058 400.88044,201.43721 376.06836,160.19922 351.25628,118.96123 323.2593,84.957375 297.844,63.186307 285.13636,52.300777 273.08235,44.461046 262.22613,40.334859 c -10.85621,-4.126184 -20.76516,-4.553692 -28.47371,0.08439 -7.70855,4.638078 -11.97394,13.594007 -13.41355,25.118336 -1.43961,11.524344 -0.15764,25.845396 3.50749,42.171625 7.33026,32.65247 24.25737,73.31685 49.06945,114.55484 24.81207,41.23799 52.81074,75.24084 78.22603,97.0119 12.70765,10.88554 24.76099,18.72795 35.61721,22.85413 10.85621,4.12619 20.76583,4.55102 28.47437,-0.0871 z m -2.63215,-4.37466 c -5.92962,3.56774 -14.01781,3.4948 -24.02928,-0.31032 -10.01149,-3.80512 -21.69529,-11.3266 -34.10779,-21.95931 -24.82502,-21.26542 -52.59636,-54.92271 -77.17206,-95.76783 -24.57569,-40.84512 -41.30297,-81.14512 -48.46298,-113.03923 -3.58001,-15.947047 -4.75253,-29.792939 -3.42494,-40.420563 1.32759,-10.627619 5.05072,-17.809463 10.98034,-21.377199 5.92963,-3.567741 14.01715,-3.492126 24.02864,0.312998 10.01149,3.805125 21.69695,11.325589 34.10946,21.9583 24.82502,21.26543 52.59368,54.922044 77.16937,95.767164 24.5757,40.84512 41.30565,81.14579 48.46567,113.03989 3.58,15.94706 4.75085,29.79396 3.42326,40.42158 -1.3276,10.62762 -5.05005,17.80678 -10.97969,21.37452 z m 40.80753,-8.29608 c 6.53128,-6.18676 8.77163,-15.84747 7.70018,-27.41185 C 460.03755,290.39605 455.70702,276.68264 448.61792,261.526 434.43972,231.21272 409.16529,195.13923 376.06836,160.19922 342.97143,125.25921 308.31917,98.068875 278.81794,82.270339 264.06732,74.371075 250.60982,69.305888 239.1204,67.609936 c -11.4894,-1.695952 -21.25859,0.01667 -27.78987,6.203423 -6.53127,6.186751 -8.77168,15.850229 -7.70024,27.414601 1.07144,11.56438 5.40204,25.27503 12.49113,40.43167 14.1782,30.31329 39.45121,66.38812 72.54815,101.32812 33.09692,34.94002 67.7506,62.12901 97.25184,77.92754 14.75061,7.89927 28.20805,12.96722 39.69746,14.66317 11.4894,1.69595 21.25866,-0.0194 27.78993,-6.20618 z m -3.51103,-3.70655 c -5.02403,4.75902 -12.9388,6.42651 -23.5342,4.86252 -10.59542,-1.56398 -23.62294,-6.39794 -38.03097,-14.11374 -28.81606,-15.43161 -63.17345,-42.33199 -95.95507,-76.93913 -32.78162,-34.60713 -57.78113,-70.36907 -71.63004,-99.97832 -6.92445,-14.80462 -11.04602,-28.07474 -12.03409,-38.73929 -0.98807,-10.664544 1.10413,-18.478845 6.12816,-23.237863 5.02404,-4.759024 12.93873,-6.423753 23.53415,-4.859765 10.59541,1.563988 23.62435,6.396599 38.03238,14.112401 28.81606,15.431607 63.17068,42.331907 95.95231,76.939047 32.78162,34.60714 57.78389,70.36915 71.6328,99.9784 6.92445,14.80462 11.0446,28.07609 12.03267,38.74064 0.98807,10.66454 -1.10405,18.47608 -6.1281,23.2351 z m 38.07006,-16.87453 c 5.04862,-7.44615 5.15981,-17.36261 1.62742,-28.42629 -3.53238,-11.06368 -10.70965,-23.52554 -20.89124,-36.80388 -20.36318,-26.55669 -52.80144,-56.35354 -92.63565,-83.36181 -39.83421,-27.00827 -79.52144,-46.1137 -111.72917,-55.20098 -16.10386,-4.54364 -30.3356,-6.597439 -41.92098,-5.783855 -11.58537,0.813585 -20.75799,4.586245 -25.8066,12.032395 -5.04861,7.44613 -5.15928,17.36531 -1.6269,28.42898 3.5324,11.06369 10.70913,23.52284 20.89072,36.80118 20.36318,26.55668 52.80034,56.35516 92.63456,83.36342 39.83421,27.00828 79.52253,46.11209 111.73026,55.19937 16.10387,4.54364 30.33613,6.60015 41.92151,5.78656 11.58537,-0.81358 20.75747,-4.58895 25.80607,-12.03509 z m -4.22574,-2.86512 c -3.88352,5.72777 -11.25479,9.05772 -21.93869,9.80799 -10.68391,0.75028 -24.44602,-1.17012 -40.17587,-5.60824 -31.45969,-8.87622 -70.7966,-27.76186 -110.25132,-54.51282 -39.45472,-26.75097 -71.55751,-56.30265 -91.44776,-82.24255 -9.94511,-12.96994 -16.823,-25.0438 -20.08054,-35.24662 -3.25753,-10.2028 -2.89409,-18.28417 0.98944,-24.01194 3.88353,-5.72778 11.25531,-9.05501 21.93922,-9.80529 10.68391,-0.75028 24.44711,1.16851 40.17696,5.60662 31.4597,8.87623 70.79389,27.76238 110.24861,54.51335 39.45472,26.75096 71.56023,56.30213 91.45047,82.24202 9.94512,12.96995 16.82192,25.04542 20.07944,35.24823 3.25753,10.20281 2.89358,18.28147 -0.98996,24.00925 z m 33.55248,-24.66396 c 3.32988,-8.35736 1.30673,-18.06589 -4.52144,-28.11154 -5.82817,-10.04566 -15.51656,-20.67327 -28.31456,-31.45243 -25.596,-21.55832 -63.68132,-43.68528 -108.39021,-61.49893 -44.70889,-17.81365 -87.57535,-27.94083 -120.98358,-29.89194 -16.70411,-0.97556 -31.04463,0.0781 -42.18425,3.36314 -11.13961,3.28507 -19.28678,8.94137 -22.61665,17.29873 -3.32988,8.35736 -1.30563,18.06842 4.52253,28.11407 5.82817,10.04567 15.51547,20.67074 28.31347,31.4499 25.59601,21.55832 63.68059,43.6871 108.38949,61.50074 44.70888,17.81366 87.57607,27.93902 120.9843,29.89013 16.70411,0.97556 31.04572,-0.0755 42.18534,-3.3606 11.13962,-3.28507 19.28569,-8.94391 22.61556,-17.30127 z m -4.74286,-1.88973 c -2.56143,6.42871 -9.04452,11.26541 -19.31735,14.29486 -10.27284,3.02947 -24.12603,4.11241 -40.44218,3.15951 -32.63231,-1.9058 -75.10941,-11.89363 -119.39236,-29.53757 -44.28296,-17.64395 -81.98794,-39.60358 -106.98947,-60.6612 -12.50076,-10.52881 -21.81338,-20.84185 -27.18805,-30.10585 -5.37468,-9.26399 -6.75699,-17.23455 -4.19556,-23.66326 2.56143,-6.42871 9.04561,-11.26287 19.31845,-14.29233 10.27284,-3.02946 24.12675,-4.11422 40.4429,-3.16132 32.63231,1.9058 75.10686,11.89472 119.38982,29.53866 44.28295,17.64395 81.99048,39.60249 106.99201,60.66011 12.50076,10.52881 21.81265,20.84366 27.18733,30.10766 5.37467,9.264 6.75589,17.23202 4.19446,23.66073 z m 27.46602,-31.30011 c 1.45544,-8.8778 -2.60746,-17.92443 -10.45889,-26.48233 -7.85143,-8.55792 -19.59793,-16.85435 -34.41392,-24.6303 -29.63199,-15.55192 -71.58353,-28.97434 -119.07656,-36.76043 -47.49303,-7.78609 -91.53434,-8.46148 -124.58094,-3.18519 -16.52329,2.63814 -30.30204,6.74991 -40.47503,12.35288 -10.17298,5.60295 -16.91373,12.87841 -18.36917,21.75621 -1.45544,8.87779 2.60907,17.92666 10.4605,26.48456 7.85143,8.55792 19.59632,16.85211 34.41231,24.62806 29.63199,15.55192 71.58321,28.97628 119.07624,36.76235 47.49303,7.7861 91.53466,8.45956 124.58125,3.18327 16.5233,-2.63814 30.30366,-6.74767 40.47665,-12.35064 10.17298,-5.60295 16.91212,-12.88065 18.36756,-21.75844 z m -5.03822,-0.82597 c -1.11956,6.82903 -6.41133,12.94633 -15.79275,18.11331 -9.38142,5.16699 -22.67792,9.20264 -38.81746,11.77951 -32.27908,5.15374 -75.91017,4.53074 -122.95074,-3.18117 -47.04057,-7.71191 -88.5847,-21.05268 -117.52848,-36.2434 -14.47188,-7.59535 -25.78377,-15.66534 -33.02428,-23.55736 -7.2405,-7.89201 -10.30393,-15.37907 -9.18436,-22.20811 1.11956,-6.82904 6.41294,-12.94409 15.79436,-18.11108 9.38142,-5.16699 22.67824,-9.20456 38.81778,-11.78143 32.27908,-5.15374 75.90792,-4.52913 122.94849,3.18278 47.04057,7.71191 88.58696,21.05107 117.53073,36.24178 14.47188,7.59536 25.78346,15.66728 33.02396,23.55929 7.2405,7.89202 10.30232,15.37683 9.18275,22.20588 z m 20.09528,-36.47272 c -0.48705,-8.98312 -6.39972,-16.94484 -15.90728,-23.61484 -9.50756,-6.67001 -22.76293,-12.24732 -38.90413,-16.65648 -32.28241,-8.81832 -76.13857,-12.90859 -124.19502,-10.30305 -48.05645,2.60554 -91.21329,11.41353 -122.35303,23.67049 -15.56986,6.12849 -28.14256,13.10615 -36.87324,20.76501 -8.73067,7.65886 -13.74982,16.21328 -13.26276,25.1964 0.48704,8.98311 6.40177,16.94667 15.90933,23.61667 9.50757,6.67001 22.76088,12.24548 38.90208,16.65464 32.2824,8.81832 76.13867,12.91055 124.19512,10.305 48.05645,-2.60554 91.21318,-11.41548 122.35292,-23.67245 15.56987,-6.12848 28.14462,-13.1043 36.8753,-20.76317 8.73067,-7.65885 13.74776,-16.21512 13.26071,-25.19822 z m -5.09798,0.2764 c 0.37465,6.91005 -3.47836,14.0219 -11.5297,21.08481 -8.05133,7.06292 -20.16943,13.86257 -35.37769,19.84872 -30.4165,11.9723 -73.16145,20.74325 -120.76007,23.32398 -47.59862,2.58072 -91.03935,-1.51739 -122.57199,-10.1309 -15.76631,-4.30675 -28.54855,-9.75635 -37.31632,-15.90736 -8.76778,-6.15101 -13.36908,-12.80447 -13.74373,-19.71453 -0.37466,-6.91006 3.48041,-14.02005 11.53175,-21.08297 8.05134,-7.06292 20.16933,-13.86452 35.37758,-19.85067 30.41651,-11.97229 73.15961,-20.7412 120.75823,-23.32192 47.59862,-2.58072 91.0412,1.51533 122.57383,10.12884 15.76632,4.30676 28.54866,9.7583 37.31644,15.90931 8.76777,6.15102 13.36702,12.80263 13.74167,19.71269 z m 11.7849,-39.93989 c -2.40676,-8.6684 -9.89273,-15.17293 -20.61187,-19.64315 -10.71913,-4.47022 -24.86355,-7.06763 -41.57522,-7.90382 -33.42334,-1.67239 -77.13346,3.76075 -123.50626,16.63609 -46.3728,12.87534 -86.6272,30.75485 -114.40402,49.41938 -13.88841,9.33226 -24.66717,18.84955 -31.54731,28.20619 -6.88013,9.35663 -9.94298,18.79002 -7.53621,27.45842 2.40677,8.66838 9.89514,15.17427 20.61427,19.64449 10.71915,4.47022 24.86116,7.06627 41.57282,7.90247 33.42335,1.67238 77.13399,-3.75886 123.50678,-16.63422 46.37281,-12.87533 86.62668,-30.75672 114.40351,-49.42125 13.88841,-9.33226 24.66958,-18.8482 31.5497,-28.20484 6.88013,-9.35663 9.94058,-18.79138 7.53381,-27.45976 z m -4.91937,1.36585 c 1.85135,6.66796 -0.38275,14.44182 -6.72753,23.07041 -6.34478,8.62859 -16.71784,17.8743 -30.28369,26.98982 -27.13169,18.23104 -66.99179,35.98584 -112.9228,48.73852 -45.93102,12.75268 -89.23709,18.08886 -121.88417,16.45531 -16.32353,-0.81677 -29.97843,-3.39115 -39.8635,-7.51355 -9.88508,-4.12238 -15.8091,-9.63115 -17.66045,-16.29911 -1.85135,-6.66797 0.38514,-14.44046 6.72993,-23.06905 6.34478,-8.6286 16.71732,-17.87619 30.28316,-26.99171 27.13171,-18.23104 66.99044,-35.98343 112.92145,-48.73612 45.93101,-12.75268 89.23846,-18.09126 121.88553,-16.45771 16.32353,0.81677 29.97895,3.39304 39.86402,7.51543 9.88508,4.12239 15.8067,9.6298 17.65805,16.29776 z m 2.92348,-41.53953 c -4.21394,-7.94834 -12.92318,-12.69154 -24.35267,-14.75295 -11.42949,-2.06142 -25.80159,-1.55746 -42.30231,1.21841 -33.00143,5.55174 -74.52167,20.25423 -117.04248,42.79734 -42.52081,22.54311 -77.99052,48.6581 -101.10562,72.85746 -11.55754,12.09968 -20.03836,23.71157 -24.74624,34.32849 -4.70788,10.6169 -5.67122,20.48817 -1.45727,28.43652 4.21394,7.94834 12.92581,12.69234 24.3553,14.75375 11.4295,2.06142 25.79896,1.55665 42.29967,-1.21922 33.00144,-5.55174 74.52259,-20.2525 117.0434,-42.79561 42.52081,-22.5431 77.98961,-48.65983 101.1047,-72.85919 11.55755,-12.09968 20.04101,-23.71077 24.74889,-34.32768 4.70787,-10.6169 5.66858,-20.48898 1.45463,-28.43732 z m -4.51074,2.39145 c 3.24148,6.11408 2.73077,14.18646 -1.61079,23.97725 -4.34155,9.7908 -12.48454,21.05025 -23.77366,32.86891 -22.57824,23.63732 -57.68967,49.54577 -99.80539,71.87411 -42.11572,22.32834 -83.26221,36.84929 -115.49718,42.27209 -16.11748,2.7114 -30.00654,3.1326 -40.5467,1.23158 -10.54016,-1.901 -17.50991,-6.00749 -20.75139,-12.12157 -3.24148,-6.11409 -2.72813,-14.18565 1.61343,-23.97645 4.34155,-9.7908 12.48362,-21.05198 23.77274,-32.87064 22.57824,-23.63732 57.68886,-49.54312 99.80458,-71.87146 42.11572,-22.32834 83.26302,-36.85193 115.49799,-42.27473 16.11748,-2.7114 30.00746,-3.13088 40.54762,-1.22987 10.54016,1.90102 17.50727,6.00669 20.74875,12.12078 z m -6.07464,-41.196822 c -5.82408,-6.856646 -15.34935,-9.616724 -26.95477,-9.172935 -11.60542,0.443782 -25.53317,4.02553 -41.05138,10.28367 -31.03642,12.516277 -68.42533,35.800657 -105.10593,66.957437 -36.6806,31.15678 -65.70709,64.28616 -83.07962,92.88881 -8.68626,14.30133 -14.4726,27.46487 -16.78809,38.84562 -2.31549,11.38074 -1.13427,21.22831 4.68982,28.08496 5.82408,6.85664 15.35209,9.61694 26.95751,9.17315 11.60543,-0.44379 25.53042,-4.02576 41.04863,-10.28389 31.03642,-12.51628 68.4266,-35.79917 105.10719,-66.95595 36.68061,-31.15678 65.70583,-64.28765 83.07836,-92.8903 8.68627,-14.30133 14.47535,-27.46465 16.79084,-38.8454 2.31549,-11.38074 1.13152,-21.228534 -4.69256,-28.085172 z m -3.89119,3.305211 c 4.48004,5.274311 5.71659,13.267751 3.58127,23.762941 -2.13532,10.49521 -7.66748,23.24192 -16.152,37.2111 -16.96905,27.93834 -45.69005,60.78898 -82.02119,91.64893 -36.33115,30.85996 -73.39408,53.88669 -103.70967,66.11228 -15.15779,6.11279 -28.63159,9.50988 -39.33399,9.91913 -10.7024,0.40926 -18.39197,-2.10293 -22.87201,-7.37724 -4.48005,-5.27432 -5.71384,-13.26753 -3.57852,-23.76273 2.13531,-10.49521 7.66621,-23.24341 16.15073,-37.21258 16.96905,-27.93835 45.68982,-60.78624 82.02096,-91.64619 36.33115,-30.85995 73.39431,-53.88944 103.7099,-66.115021 15.15779,-6.112792 28.63285,-9.508398 39.33525,-9.91765 10.7024,-0.409252 18.38922,2.102708 22.86927,7.37703 z M 530.50053,56.508464 c -7.1619,-5.444336 -17.0578,-6.092234 -28.29649,-3.163999 -11.23869,2.92823 -24.07085,9.420293 -37.88094,18.868077 -27.62017,18.895566 -59.1295,49.673088 -88.25474,87.986678 -29.12524,38.31359 -50.35127,76.90827 -61.16892,108.57679 -5.40882,15.83425 -8.2301,29.93393 -8.04493,41.54637 0.18517,11.61242 3.45571,20.97584 10.61761,26.42017 7.16189,5.44433 17.06052,6.09186 28.29921,3.16362 11.2387,-2.92823 24.06812,-9.41992 37.87821,-18.8677 27.62017,-18.89557 59.13106,-49.6719 88.25629,-87.9855 29.12525,-38.31359 50.34973,-76.90945 61.16737,-108.57796 5.40882,-15.83426 8.23284,-29.934317 8.04766,-41.546748 -0.18517,-11.612425 -3.45843,-20.97547 -10.62033,-26.419798 z m -3.0897,4.064428 c 5.50913,4.187926 8.43512,11.728661 8.60588,22.437514 0.17076,10.708859 -2.49189,24.346814 -7.77509,39.813324 -10.5664,30.933 -31.554,69.18978 -60.40177,107.13836 -28.84776,37.94859 -60.09412,68.40441 -87.07281,86.86112 -13.48934,9.22835 -25.91785,15.44249 -36.28206,18.14288 -10.3642,2.70039 -18.41404,1.89996 -23.92317,-2.28797 -5.50913,-4.18793 -8.43238,-11.72903 -8.60314,-22.43789 -0.17076,-10.70886 2.49034,-24.348 7.77353,-39.8145 10.56641,-30.93301 31.55438,-69.18704 60.40214,-107.13563 28.84777,-37.94859 60.09375,-68.407143 87.07244,-86.863853 13.48934,-9.228356 25.91941,-15.441315 36.28362,-18.141698 10.3642,-2.700383 18.4113,-1.89959 23.92043,2.288343 z M 504.59955,25.734344 c -8.16483,-3.777454 -17.96865,-2.282878 -28.3151,2.992883 -10.34646,5.275757 -21.48301,14.374573 -32.93923,26.570234 -22.91244,24.391319 -47.06884,61.222849 -67.27686,104.901759 -20.20802,43.67891 -32.64108,85.93423 -36.39802,119.18783 -1.87847,16.6268 -1.60278,31.00332 1.0744,42.30446 2.67716,11.30113 7.88409,19.74257 16.04892,23.52002 8.16482,3.77745 17.97123,2.28192 28.31768,-2.99384 10.34646,-5.27576 21.48042,-14.37362 32.93664,-26.56928 22.91244,-24.39132 47.07062,-61.22203 67.27863,-104.90094 20.20802,-43.67891 32.63932,-85.93505 36.39625,-119.188651 1.87847,-16.6268 1.60537,-31.004282 -1.07181,-42.305414 -2.67716,-11.301128 -7.88668,-19.741614 -16.0515,-23.519061 z m -2.14373,4.633598 c 6.2806,2.905716 10.75922,9.641151 13.22807,20.062929 2.46886,10.421782 2.80022,24.313283 0.96538,40.553921 -3.66969,32.481268 -15.94253,74.355338 -35.95803,117.618128 -20.0155,43.26278 -43.98423,79.7236 -66.36452,103.54843 -11.19015,11.91241 -21.99223,20.65303 -31.53363,25.51828 -9.54139,4.86525 -17.57509,5.81402 -23.8557,2.9083 -6.28061,-2.90572 -10.75663,-9.6421 -13.22549,-20.06389 -2.46886,-10.42178 -2.80199,-24.3141 -0.96715,-40.55474 3.66969,-32.48127 15.94348,-74.35274 35.95898,-117.61553 20.0155,-43.26279 43.98328,-79.726201 66.36357,-103.551023 11.19015,-11.912413 21.99401,-20.652214 31.5354,-25.517461 9.54139,-4.865248 17.5725,-5.813066 23.85312,-2.907344 z M 472.68859,1.2476521 c -8.78599,-1.93394167 -18.03931,1.6332228 -27.00973,9.0098209 -8.97044,7.376595 -17.89064,18.656715 -26.45731,33.029996 -17.13335,28.746562 -32.8073,69.909901 -43.15319,116.911751 -10.34589,47.00185 -13.40464,90.942 -9.9252,124.22579 1.73972,16.64188 5.0995,30.62303 10.14349,41.08444 5.04399,10.4614 11.94384,17.58614 20.72982,19.52008 8.78597,1.93394 18.04162,-1.63471 27.01204,-9.0113 8.97044,-7.37661 17.88831,-18.65523 26.45499,-33.02851 17.13335,-28.74657 32.80921,-69.90949 43.15509,-116.91134 10.3459,-47.00184 13.40273,-90.942419 9.92329,-124.226199 -1.73972,-16.64189 -5.09717,-30.624526 -10.14116,-41.08593 C 488.37674,10.304849 481.47456,3.1815897 472.68859,1.2476521 Z m -1.09753,4.986106 c 6.75841,1.4876375 12.58024,7.1028309 17.23175,16.7502239 4.65151,9.647395 7.96138,23.142888 9.6607,39.398265 3.39862,32.510752 0.41439,76.044123 -9.83293,122.598193 -10.24733,46.55407 -25.81768,87.31502 -42.5531,115.39394 -8.36771,14.03945 -17.03828,24.89785 -25.31072,31.70047 -8.27243,6.80263 -15.91435,9.45622 -22.67276,7.96858 -6.75842,-1.48764 -12.57792,-7.10432 -17.22943,-16.75172 -4.65152,-9.6474 -7.96329,-23.14331 -9.66261,-39.39868 -3.39863,-32.51076 -0.41291,-76.0418 9.83441,-122.59587 10.24733,-46.55406 25.8162,-87.317347 42.55162,-115.39626 8.36771,-14.039457 17.04018,-24.897438 25.31262,-31.700056 8.27244,-6.8026176 15.91203,-9.4547275 22.67045,-7.9670859 z" id="path951" transform="matrix(0.97772686,0,0,0.97772686,68.526149,3.5680617)"/> </g> </svg>